<?xml version="1.0" standalone="no"?>
<!DOCTYPE svg PUBLIC "-//W3C//DTD SVG 20010904//EN"
 "http://www.w3.org/TR/2001/REC-SVG-20010904/DTD/svg10.dtd">
<svg version="1.0" xmlns="http://www.w3.org/2000/svg"
 width="1033.000000pt" height="1011.000000pt" viewBox="0 0 1033.000000 1011.000000"
 preserveAspectRatio="xMidYMid meet">

<g transform="translate(0.000000,1011.000000) scale(0.100000,-0.100000)"
fill="#000000" stroke="none">
<path d="M5490 9389 c-63 -3 -146 -11 -185 -18 -38 -6 -137 -22 -220 -36 -205
-33 -345 -77 -543 -171 -52 -25 -96 -43 -99 -41 -2 3 9 20 25 38 35 41 56 79
48 87 -8 7 -48 -16 -119 -67 -161 -116 -254 -187 -290 -220 -23 -20 -66 -54
-94 -75 -54 -39 -187 -195 -255 -301 -58 -89 -91 -164 -147 -330 -28 -83 -62
-184 -77 -225 -44 -126 -22 -217 82 -329 58 -63 59 -64 62 -131 5 -80 -10
-102 -80 -120 -166 -41 -237 -151 -196 -304 11 -41 10 -49 -20 -113 -42 -93
-54 -152 -53 -258 2 -107 25 -158 84 -190 36 -19 37 -22 37 -75 0 -66 13 -89
105 -188 100 -107 210 -181 347 -232 152 -56 314 -60 537 -14 42 9 116 15 166
15 128 -1 175 7 175 30 0 21 20 25 150 33 47 3 106 9 133 12 34 5 47 3 47 -6
0 -6 -29 -51 -65 -98 -35 -48 -78 -111 -94 -142 -31 -58 -68 -176 -59 -186 4
-3 20 2 38 11 18 9 34 15 36 12 2 -2 -9 -33 -25 -69 -16 -35 -48 -127 -71
-204 -43 -145 -83 -247 -108 -276 -30 -36 -253 -21 -462 32 -156 39 -180 43
-180 32 0 -5 7 -13 16 -16 9 -4 14 -9 11 -12 -3 -3 -41 8 -85 25 -44 17 -102
35 -128 41 -28 7 -79 32 -122 62 -91 61 -182 105 -240 114 -35 6 -41 4 -37 -8
4 -9 25 -24 48 -34 23 -11 71 -45 107 -77 36 -32 81 -67 100 -76 48 -25 311
-110 390 -127 86 -18 104 -18 96 1 -7 19 -11 19 65 -5 98 -29 156 -41 257 -49
96 -8 109 -12 97 -30 -9 -16 -124 -13 -358 9 -207 19 -210 19 -387 79 -216 74
-271 79 -100 10 183 -74 315 -116 405 -129 158 -22 255 -42 255 -52 0 -11 -7
-10 -257 28 -186 28 -234 41 -456 128 -299 117 -444 194 -540 284 -31 31 -59
53 -62 50 -2 -2 21 -35 52 -72 58 -69 158 -143 255 -189 115 -55 437 -185 501
-203 37 -10 67 -22 67 -27 0 -26 -241 57 -470 162 -197 91 -348 199 -433 311
-35 46 -46 31 -19 -25 25 -52 27 -65 10 -65 -14 1 -38 30 -74 93 -29 51 -31
35 -4 -35 24 -65 28 -127 6 -108 -8 6 -29 34 -47 61 -17 27 -33 48 -35 46 -9
-9 41 -135 65 -167 45 -58 46 -62 7 -44 -24 12 -51 41 -87 96 -28 43 -53 77
-55 75 -3 -2 7 -30 21 -62 14 -31 23 -60 20 -63 -9 -9 -141 132 -169 181 -14
24 -33 66 -41 93 -17 56 -20 184 -5 184 6 0 10 9 10 20 0 11 -6 20 -14 20 -43
0 -236 211 -271 295 -25 59 -47 224 -35 260 13 40 42 68 66 63 19 -3 21 -6 84
-138 38 -80 97 -171 165 -252 17 -20 71 -67 120 -105 71 -55 104 -90 154 -162
85 -122 160 -181 375 -295 92 -49 276 -100 216 -60 -14 10 -45 36 -70 60 -42
40 -172 109 -184 97 -8 -8 -69 30 -148 94 -52 43 -88 83 -137 158 -58 88 -78
109 -163 173 -80 60 -109 89 -167 171 -39 54 -91 141 -115 193 -50 109 -80
138 -139 138 -35 0 -46 -6 -85 -46 -33 -35 -42 -41 -36 -23 10 28 9 53 -1 95
-7 30 -4 33 52 67 189 115 337 332 405 594 27 106 31 136 33 288 4 254 -29
435 -125 672 -230 574 -702 953 -1185 953 -114 0 -221 -19 -300 -55 -33 -14
-112 -47 -175 -72 -247 -97 -437 -240 -533 -400 -130 -214 -174 -412 -164
-723 14 -404 131 -699 420 -1063 212 -268 407 -392 691 -442 109 -19 191 -19
276 -1 50 11 69 12 81 3 9 -7 44 -31 78 -55 l61 -43 -30 -56 c-38 -71 -38
-103 0 -147 l30 -34 -52 -7 c-202 -25 -291 -204 -166 -332 38 -39 41 -44 30
-68 -27 -58 -6 -144 48 -200 28 -28 29 -33 19 -69 -20 -71 18 -171 79 -209 23
-13 26 -21 23 -60 -6 -102 42 -175 133 -202 28 -9 90 -15 142 -15 l92 0 16
-42 c8 -24 39 -104 67 -178 36 -96 53 -156 58 -207 9 -104 33 -130 149 -159 8
-2 12 -23 12 -61 0 -67 20 -107 72 -146 75 -56 161 -60 261 -13 71 34 111 85
127 162 13 62 4 101 -34 148 l-23 30 28 39 c38 52 37 86 -6 163 -34 60 -125
308 -125 339 0 23 21 18 86 -21 212 -131 295 -170 342 -161 14 3 37 1 51 -5
17 -6 27 -6 29 1 7 20 36 12 124 -34 49 -25 122 -56 163 -70 90 -31 125 -46
125 -55 0 -4 -28 -19 -62 -34 -72 -30 -219 -135 -293 -210 -75 -75 -143 -172
-151 -214 -6 -34 -59 -138 -109 -213 -14 -21 -44 -41 -98 -64 -159 -68 -288
-147 -363 -220 -63 -61 -80 -87 -137 -205 -79 -162 -126 -312 -134 -430 -5
-75 -2 -93 21 -154 14 -37 26 -69 26 -70 0 -1 -18 0 -39 2 -23 2 -72 -6 -116
-19 -73 -21 -77 -22 -135 -6 -97 27 -167 23 -241 -15 -50 -27 -67 -42 -84 -76
-13 -25 -43 -60 -71 -81 -63 -47 -125 -141 -132 -196 -11 -99 55 -221 143
-265 46 -23 62 -25 195 -27 129 -1 161 -5 291 -37 247 -60 506 -88 939 -102
124 -4 248 -8 275 -10 28 -1 115 -3 195 -3 188 0 221 -1 243 -7 13 -4 17 0 17
19 0 28 -26 43 -45 27 -7 -6 -20 -8 -29 -4 -9 3 -23 1 -31 -6 -12 -10 -15 -10
-15 3 0 10 -6 13 -20 10 -11 -3 -27 0 -35 7 -12 10 -21 10 -44 0 -17 -6 -34
-9 -39 -6 -5 3 -51 8 -102 11 -52 3 -96 8 -99 11 -10 10 12 18 58 21 37 2 51
-1 55 -13 5 -13 9 -13 28 -1 19 11 99 13 428 10 223 -2 453 -3 513 -3 64 -1
107 -5 107 -11 0 -15 -17 -18 -120 -24 -143 -8 -198 -13 -210 -20 -5 -3 -10 1
-10 9 0 9 -4 16 -10 16 -5 0 -10 -5 -10 -11 0 -7 -18 -10 -47 -9 -83 4 -93 2
-93 -21 0 -15 4 -19 16 -15 9 4 23 1 30 -5 7 -6 19 -7 26 -3 15 10 60 13 73 5
6 -3 53 -6 105 -7 194 -4 495 -16 508 -19 6 -3 12 -9 12 -14 0 -9 -27 -12
-120 -15 -27 0 -50 -3 -50 -6 0 -3 -21 -5 -47 -6 -124 -1 -193 -7 -193 -16 0
-7 -5 -7 -13 0 -14 12 -97 4 -97 -8 0 -11 112 -18 126 -8 6 4 13 5 16 2 11
-10 87 -13 94 -3 4 7 10 6 19 -1 7 -6 43 -10 81 -9 114 2 317 -12 339 -24 19
-10 18 -11 -10 -19 -16 -4 -61 -10 -100 -12 -38 -3 -71 -9 -73 -15 -3 -10 26
-17 123 -26 132 -13 148 -16 164 -24 13 -8 11 -11 -13 -20 -79 -31 -356 -92
-453 -100 -73 -7 -139 -20 -203 -41 -91 -30 -101 -31 -222 -27 -71 2 -130 2
-132 -1 -3 -2 -1 -15 4 -28 6 -15 6 -24 0 -24 -33 0 -394 61 -409 70 -25 13
-71 13 -71 0 0 -19 29 -68 42 -73 77 -27 -217 -5 -507 39 -145 22 -212 39
-306 78 -46 19 -113 44 -148 55 -69 23 -181 37 -181 23 0 -9 221 -130 275
-151 30 -11 29 -11 -9 -6 -22 2 -79 24 -127 49 -48 24 -122 54 -166 66 -141
40 -505 176 -603 225 -100 51 -307 194 -382 264 -258 242 -413 585 -394 871
16 234 155 471 311 529 90 34 176 15 191 -43 4 -19 -2 -31 -31 -58 -48 -44
-58 -104 -27 -165 43 -82 102 -110 213 -100 129 11 221 106 265 272 46 172
-30 363 -193 484 -91 67 -149 84 -274 78 -70 -3 -118 -10 -141 -21 -36 -17
-85 -62 -77 -70 3 -3 29 2 58 10 39 12 84 15 169 12 104 -3 123 -7 171 -32 65
-33 154 -115 187 -171 13 -22 31 -72 40 -110 28 -121 6 -227 -65 -308 -37 -41
-125 -87 -170 -87 -54 0 -41 16 21 28 73 14 115 49 150 126 31 70 32 192 1
251 -30 58 -100 133 -144 155 -98 51 -254 63 -381 31 -167 -43 -259 -105 -365
-249 -108 -145 -149 -259 -164 -451 -12 -157 -7 -232 21 -364 27 -124 51 -192
100 -289 23 -43 39 -78 37 -78 -7 0 -74 105 -100 156 -32 63 -70 186 -92 294
-9 47 -21 89 -26 95 -6 6 -8 -2 -4 -20 2 -17 12 -77 21 -135 21 -133 60 -252
118 -358 47 -87 164 -248 211 -292 15 -14 31 -34 36 -45 13 -27 -81 74 -196
210 -51 61 -102 119 -114 130 l-22 19 9 -25 c12 -30 68 -126 93 -157 10 -13
22 -40 25 -61 25 -134 90 -231 248 -372 204 -182 519 -374 772 -472 139 -54
350 -115 454 -132 52 -9 136 -27 185 -40 50 -14 124 -29 165 -35 41 -6 131
-25 200 -41 68 -17 146 -33 173 -36 26 -3 50 -10 54 -16 7 -12 -75 -3 -207 23
-52 11 -162 29 -245 41 -185 26 -436 83 -637 145 -241 73 -439 168 -665 316
-159 104 -240 169 -379 305 -85 83 -107 111 -145 188 -25 50 -62 119 -82 155
-31 57 -64 134 -123 294 -19 51 -51 292 -64 491 -12 178 -16 205 -36 243 -8
15 -14 36 -14 47 0 18 -1 18 -17 2 -13 -13 -17 -34 -16 -94 3 -171 49 -499 83
-583 20 -50 -19 11 -47 73 -14 32 -31 56 -37 54 -21 -7 -17 -48 9 -118 37 -96
178 -394 214 -449 45 -71 53 -91 47 -112 -9 -37 34 -100 153 -221 144 -148
222 -211 431 -350 283 -188 425 -248 940 -396 116 -33 498 -95 685 -111 66 -5
140 -12 165 -14 110 -12 866 -17 1030 -7 96 6 218 13 270 17 52 3 174 17 270
31 211 31 236 33 415 38 77 2 205 6 285 10 80 3 264 7 410 8 232 2 265 4 268
18 2 13 -9 16 -60 18 -35 1 -112 4 -173 7 -60 3 -131 5 -158 6 -26 0 -50 4
-53 10 -13 21 -3 23 201 33 66 4 143 8 170 9 212 12 343 16 489 16 112 0 173
3 182 11 10 8 18 8 27 1 13 -12 87 -9 107 3 7 4 16 2 20 -5 5 -9 9 -9 14 -1
13 20 -3 28 -51 28 -27 0 -58 3 -69 7 -14 4 -27 1 -37 -9 -11 -10 -18 -12 -22
-4 -4 6 -31 9 -61 8 -29 -2 -57 0 -60 4 -4 4 -13 2 -20 -4 -9 -7 -19 -7 -32 0
-14 7 -24 6 -40 -5 -11 -8 -23 -10 -26 -6 -8 13 -224 14 -231 1 -5 -7 -11 -6
-20 1 -27 22 -72 29 -88 12 -14 -14 -18 -13 -41 2 -30 19 -34 35 -8 38 54 5
333 16 567 22 77 3 142 5 145 6 3 1 25 1 50 1 25 -1 50 -2 55 -1 12 0 143 10
165 12 8 1 25 -2 38 -6 16 -5 24 -3 28 9 4 9 4 18 2 21 -3 2 -86 7 -184 10
-307 9 -369 12 -382 13 -10 1 -10 5 0 20 7 12 17 17 23 12 9 -8 180 -6 255 3
50 5 457 18 640 20 85 1 160 5 167 9 6 4 14 3 18 -3 7 -11 140 -8 151 3 3 3
17 1 31 -4 17 -6 30 -6 39 1 9 8 18 8 33 1 28 -15 83 -3 79 18 -2 11 -15 16
-44 17 -22 0 -45 3 -50 6 -5 3 -170 5 -367 4 -198 -1 -361 2 -364 7 -2 4 -9 4
-15 1 -6 -4 -48 -6 -92 -5 -119 3 -129 5 -134 19 -3 9 4 13 19 12 13 -1 26 -1
29 0 21 9 533 26 1008 34 95 2 175 6 178 9 3 3 16 3 28 -1 11 -4 30 -6 41 -6
11 1 35 2 53 3 26 1 33 5 30 19 -2 10 -11 16 -23 15 -37 -5 -135 -6 -139 -2
-2 2 -58 3 -123 3 -67 -1 -123 3 -130 8 -9 7 -17 7 -25 0 -7 -5 -31 -8 -53 -6
-22 2 -163 6 -314 8 -273 5 -365 12 -356 26 2 3 32 8 67 9 73 2 248 9 263 11
6 0 32 -1 59 -3 29 -3 43 -1 35 4 -9 6 -2 9 23 9 20 0 40 -5 43 -10 4 -7 13
-5 26 3 21 16 69 11 69 -6 0 -7 4 -7 12 1 16 16 48 15 48 0 0 -10 2 -10 8 0 8
12 131 19 467 26 112 2 130 5 133 19 3 15 -8 17 -85 18 -106 2 -196 6 -203 9
-3 1 -52 3 -110 4 -58 1 -112 6 -121 10 -10 4 -19 4 -22 -1 -3 -5 -23 -7 -44
-5 -21 1 -48 3 -60 3 -27 1 -30 15 -5 23 9 3 136 8 282 10 146 3 267 6 270 7
3 0 26 0 51 -1 26 -1 50 3 54 9 4 7 13 8 23 3 9 -5 49 -6 87 -2 39 3 88 5 110
4 22 -1 45 2 52 7 7 7 13 6 17 0 4 -6 33 -8 69 -6 34 2 67 5 74 5 7 0 10 6 7
14 -4 11 -30 14 -112 15 -59 1 -136 4 -172 6 -36 3 -159 7 -275 10 -173 5
-304 10 -347 14 -5 1 -8 6 -8 12 0 6 9 9 19 6 10 -2 25 -1 32 4 7 4 19 3 26
-2 7 -6 18 -7 25 -3 7 5 44 9 83 10 38 2 138 5 220 8 83 4 213 7 290 9 142 3
165 7 165 31 0 9 -19 13 -65 14 -45 1 -65 -3 -65 -11 0 -8 -3 -8 -9 1 -6 10
-39 15 -107 17 -54 2 -180 7 -279 11 -99 4 -200 7 -224 6 -49 -1 -65 4 -55 19
4 6 11 6 20 -2 11 -9 14 -8 14 5 0 13 6 15 27 10 39 -10 76 -11 95 -2 10 5 20
4 23 -2 4 -7 11 -7 18 -2 7 5 21 10 32 11 22 1 162 1 173 0 4 -1 9 -1 12 0 7
3 146 9 277 13 100 3 113 5 113 21 0 13 -9 17 -42 18 -81 1 -333 8 -488 14
-85 3 -171 6 -190 6 -50 0 -82 8 -75 18 3 5 20 8 38 6 18 -2 53 1 77 5 26 5
50 4 56 -1 6 -5 13 -6 16 -3 3 3 61 7 129 9 68 3 156 7 194 11 39 3 76 5 83 5
11 -1 36 0 90 1 21 0 27 22 6 24 -195 12 -266 15 -399 19 -88 3 -216 8 -285
11 -69 4 -153 7 -188 6 -82 0 -105 6 -89 23 7 7 18 10 27 5 8 -4 43 -3 78 3
50 9 65 8 71 -2 6 -10 10 -10 16 -2 4 7 29 11 63 9 75 -3 212 11 212 22 0 14
-50 19 -280 25 -118 4 -244 9 -280 12 -36 2 -128 6 -205 8 -171 3 -165 3 -165
16 0 6 42 65 93 132 190 248 294 413 322 511 10 35 28 70 45 85 50 48 90 116
120 206 32 96 70 244 70 276 0 10 5 19 11 19 8 0 10 -19 6 -65 -7 -76 3 -83
34 -23 19 38 81 289 94 383 3 22 9 66 13 97 5 31 10 137 11 235 1 98 6 180 11
183 16 10 -20 274 -56 417 -19 79 -34 150 -32 159 2 9 34 -51 72 -135 39 -83
73 -151 78 -151 16 0 7 67 -22 175 -17 61 -44 162 -61 225 -29 110 -137 387
-201 515 -36 72 -123 199 -188 275 -25 30 -50 62 -55 70 -10 17 62 -24 160
-91 39 -26 71 -44 73 -39 5 15 -50 89 -137 186 -45 49 -114 132 -154 184 -103
135 -235 268 -338 341 -48 35 -89 66 -89 69 0 3 46 5 102 5 181 0 160 12 -282
172 -25 9 -64 36 -88 59 -44 45 -92 64 -280 115 -98 26 -141 49 -186 100 -52
57 -79 120 -73 173 2 22 23 113 46 201 23 88 46 189 51 225 6 49 7 30 3 -72
-5 -147 3 -173 34 -100 45 107 59 385 28 536 -19 91 -13 112 9 35 21 -72 36
-195 37 -296 0 -77 11 -107 23 -65 12 42 20 154 18 240 -3 102 -25 198 -70
315 -16 43 -28 77 -26 77 8 0 72 -137 97 -206 41 -114 50 -208 38 -384 -9
-136 -13 -159 -40 -216 -17 -35 -34 -64 -39 -64 -6 0 -26 -46 -46 -103 -50
-138 -49 -137 -81 -107 -38 36 -53 15 -31 -43 39 -102 104 -174 183 -203 43
-15 123 -19 123 -5 0 4 -26 24 -58 44 -56 34 -142 117 -142 135 0 5 19 44 43
87 31 59 69 106 152 190 119 120 163 184 201 294 34 98 40 180 20 261 -21 81
-38 105 -111 154 -53 36 -62 47 -106 140 -26 56 -66 134 -88 174 -22 39 -36
72 -31 72 6 0 27 -16 49 -35 21 -19 44 -35 50 -35 30 0 0 56 -87 163 -31 38
-68 85 -82 103 -14 18 -28 34 -33 34 -12 0 -258 182 -253 187 2 3 53 -22 113
-55 104 -57 163 -81 163 -65 0 15 -96 106 -152 144 -32 22 -113 66 -180 99
-68 32 -119 59 -115 60 14 0 98 -21 180 -46 126 -39 176 -29 99 20 -169 107
-501 225 -711 254 -76 11 -522 10 -579 -1 -41 -8 -72 -24 -72 -38 0 -6 5 -7
10 -4 21 13 300 12 440 -1 163 -15 246 -29 305 -50 30 -11 33 -13 10 -9 -16 3
-88 9 -160 15 -71 5 -152 12 -180 14 -126 13 -359 -1 -419 -24 -13 -5 -26 -6
-29 -3 -3 3 -12 1 -19 -3 -7 -5 -23 -7 -35 -6 -11 2 -24 -2 -28 -8 -6 -9 33
-10 156 -4 243 12 363 8 519 -17 36 -5 82 -13 103 -16 20 -3 37 -10 37 -15 0
-5 -12 -7 -27 -4 -49 10 -185 25 -286 31 -103 7 -337 -11 -348 -27 -3 -5 -14
-10 -25 -12 -10 -2 -39 -11 -64 -19 -25 -8 -79 -25 -120 -37 -149 -44 -197
-61 -216 -75 -28 -21 -1 -20 77 4 35 10 81 22 102 26 21 3 70 17 110 30 119
40 484 74 501 46 3 -4 -47 -11 -112 -15 -189 -12 -239 -21 -412 -73 -111 -34
-178 -57 -400 -141 -58 -22 -121 -45 -141 -51 -48 -15 -392 -229 -401 -248 -1
-5 -21 -21 -43 -38 l-40 -30 22 28 c12 16 50 53 85 84 35 31 65 59 68 62 19
23 218 155 299 199 16 9 12 28 -6 26 -23 -3 -243 -127 -271 -152 -15 -14 -54
-43 -87 -64 -60 -39 -157 -120 -202 -168 -13 -14 -23 -19 -23 -12 0 18 143
158 253 247 55 44 142 106 195 137 130 77 128 76 120 83 -7 8 -89 -36 -178
-95 -30 -20 -84 -53 -120 -74 -149 -85 -291 -203 -359 -298 -19 -27 -36 -46
-39 -43 -10 9 65 118 118 172 67 68 235 208 280 233 33 19 -1 20 -37 2 -123
-64 -350 -267 -428 -384 -21 -32 -40 -58 -43 -58 -13 0 11 78 47 156 51 109
147 238 244 329 108 101 264 237 295 257 58 38 57 11 -3 -62 -72 -87 -73 -88
125 26 211 121 538 234 678 234 21 0 72 9 113 19 106 27 300 43 628 51 2 0 -2
6 -8 14 -13 15 -60 24 -165 32 -39 3 -75 6 -81 7 -5 1 -62 0 -125 -4z m197
-395 c-3 -3 -12 -4 -19 -1 -8 3 -5 6 6 6 11 1 17 -2 13 -5z m-3991 -35 c89
-12 217 -50 284 -84 85 -43 256 -162 324 -225 198 -185 396 -549 454 -835 61
-296 47 -574 -40 -785 -107 -257 -279 -415 -513 -471 -262 -63 -602 39 -853
256 -215 186 -340 370 -436 640 -78 221 -101 349 -99 557 3 267 57 463 176
637 179 260 392 353 703 310z m3754 -49 c-14 -4 -70 -16 -125 -25 -109 -19
-203 -47 -422 -123 -192 -67 -282 -106 -383 -169 -47 -29 -114 -70 -150 -92
-36 -22 -90 -60 -120 -85 -29 -25 -56 -43 -59 -40 -7 7 68 81 124 121 28 20
73 53 100 74 126 93 302 171 540 241 39 11 120 35 180 54 61 18 126 36 145 39
19 3 36 8 39 11 2 2 38 4 80 3 53 0 68 -3 51 -9z m14 -92 c-3 -5 -11 -7 -18
-5 -18 7 -161 -19 -236 -42 -67 -21 -122 -28 -104 -12 40 36 378 92 358 59z
m-4501 -82 c-37 -31 -125 -215 -158 -330 -58 -202 -66 -442 -25 -671 12 -66
25 -133 27 -148 3 -15 1 -27 -3 -25 -16 4 -88 -13 -119 -29 -16 -8 -56 -35
-88 -60 -32 -25 -60 -44 -61 -42 -10 10 -37 105 -46 161 -18 102 -21 392 -6
483 55 329 167 530 347 620 39 20 73 34 76 31 3 -2 -8 -11 -24 -19 -15 -9 -50
-39 -78 -68 -69 -71 -34 -50 70 44 47 42 93 77 101 77 10 0 6 -8 -13 -24z
m4111 11 c-2 -7 -50 -27 -107 -45 -216 -69 -506 -227 -663 -363 -71 -61 -68
-35 3 30 88 79 316 226 426 273 90 40 310 117 334 118 7 0 10 -6 7 -13z m165
-41 c-2 -2 -87 -32 -189 -66 -211 -71 -406 -163 -525 -249 -208 -150 -276
-183 -98 -48 160 122 184 137 301 193 129 62 221 98 301 118 31 8 85 23 121
34 64 19 98 26 89 18z m-80 -130 c-2 -2 -62 -23 -133 -46 -71 -23 -186 -69
-254 -101 -69 -33 -127 -57 -129 -55 -9 9 141 90 229 123 104 39 302 94 287
79z m700 -61 c231 -55 410 -272 451 -547 28 -184 -8 -365 -109 -550 -80 -147
-137 -218 -269 -328 -240 -201 -452 -245 -664 -138 -45 22 -133 108 -178 173
-29 42 -80 155 -80 178 0 5 26 6 60 2 87 -10 79 11 -22 62 -46 22 -133 76
-194 119 -62 44 -126 87 -143 96 -17 9 -31 22 -31 28 0 13 90 -32 154 -77 79
-57 196 -114 225 -111 51 6 35 33 -56 93 -48 33 -128 89 -178 125 -49 36 -108
77 -129 90 -60 36 -26 35 46 -1 85 -43 170 -101 240 -166 65 -60 91 -69 58
-20 -53 80 -63 115 -56 205 9 106 47 256 86 340 104 222 303 389 515 432 67
13 206 11 274 -5z m941 -102 c0 -8 -9 0 -50 45 l-45 47 48 -45 c26 -24 47 -45
47 -47z m-1916 -43 c-75 -34 -113 -46 -99 -32 11 12 133 61 150 61 6 0 -17
-13 -51 -29z m1934 -124 c102 -167 128 -232 163 -413 26 -134 36 -139 46 -24
8 92 17 104 48 66 46 -56 46 -192 0 -289 -50 -106 -139 -227 -121 -165 17 60
37 228 33 270 -16 138 -156 503 -248 649 l-23 35 26 -24 c15 -13 49 -60 76
-105z m-2298 33 c-19 -12 -52 -35 -72 -51 -21 -16 -43 -28 -49 -26 -10 3 75
68 90 68 5 0 14 7 21 15 7 8 20 15 29 15 9 0 1 -9 -19 -21z m144 -28 c-29 -26
-225 -149 -204 -128 29 30 203 146 209 141 3 -3 0 -8 -5 -13z m-715 -58 c-12
-15 -12 -16 6 -9 46 17 110 18 150 1 l39 -17 -28 -15 c-39 -20 -18 -33 54 -33
53 0 100 -19 100 -40 0 -6 -18 -13 -40 -16 -50 -8 -47 -25 7 -42 41 -13 123
-75 123 -93 0 -5 -20 -9 -44 -9 -42 0 -74 -19 -47 -28 27 -9 97 -70 109 -95
18 -37 9 -48 -30 -36 -17 5 -34 7 -36 4 -3 -2 11 -22 31 -44 38 -42 77 -110
77 -135 0 -11 -8 -10 -39 7 -22 12 -43 19 -47 15 -3 -4 20 -42 52 -84 47 -61
73 -85 133 -120 42 -24 72 -44 69 -44 -4 0 -60 25 -123 55 -64 30 -121 55
-126 55 -30 0 33 -78 102 -126 58 -40 29 -42 -55 -4 -78 35 -76 34 -76 17 0
-7 23 -35 50 -62 76 -75 65 -84 -38 -35 -74 35 -72 35 -72 15 0 -9 20 -38 45
-64 25 -26 45 -51 45 -55 0 -14 -37 -5 -75 19 -71 44 -87 28 -30 -29 19 -20
35 -38 35 -41 0 -13 -45 -3 -91 21 -61 30 -77 23 -31 -14 42 -35 41 -46 -5
-37 -45 8 -88 29 -128 63 -45 38 -42 11 10 -74 25 -42 44 -78 42 -81 -9 -8
-128 120 -148 159 -35 69 -89 104 -89 59 0 -23 74 -137 151 -233 39 -48 62
-91 83 -150 16 -46 51 -119 78 -163 26 -43 48 -86 48 -95 0 -8 6 -24 13 -35 8
-12 14 -55 15 -107 2 -95 -1 -100 -50 -74 -22 11 -28 12 -28 2 0 -37 98 -94
207 -121 39 -9 80 -23 90 -31 17 -12 16 -13 -13 -14 -66 0 -153 24 -235 66
-94 48 -143 60 -99 23 14 -12 65 -41 114 -66 48 -24 86 -46 83 -49 -5 -5 -148
34 -239 65 -63 21 -79 12 -25 -15 58 -30 148 -86 144 -90 -8 -9 -159 27 -245
58 -124 43 -164 69 -274 177 -94 91 -133 150 -111 172 5 5 68 0 148 -12 77
-11 184 -22 237 -26 103 -6 128 1 128 38 0 20 3 20 -189 44 -136 17 -340 57
-383 73 -49 20 -63 56 -63 157 1 140 21 192 109 284 102 107 130 169 90 202
-14 11 -20 7 -49 -27 -18 -21 -39 -39 -46 -39 -7 0 -18 -18 -24 -39 -13 -45
-21 -38 -31 22 -17 109 101 210 196 167 39 -18 54 -43 62 -104 4 -34 22 -37
36 -6 22 47 16 70 -40 147 -10 14 -8 23 12 50 23 31 25 41 25 158 1 163 1 167
26 180 16 9 29 7 64 -10 49 -24 86 -63 128 -134 30 -52 53 -56 51 -10 -2 38
-67 150 -116 196 -48 47 -127 72 -193 63 -55 -9 -58 -25 -19 -104 15 -28 23
-55 20 -58 -10 -10 -75 57 -97 99 -44 85 -29 164 46 247 62 68 185 130 259
131 35 0 37 -2 25 -17z m781 -12 c0 -5 -35 -30 -77 -57 -123 -76 -132 -79 -88
-39 31 28 111 79 163 104 1 0 2 -3 2 -8z m119 -65 c-2 -3 -45 -26 -94 -52 -50
-26 -119 -65 -155 -87 -36 -22 -68 -41 -72 -44 -5 -2 -8 -2 -8 1 0 12 100 74
243 150 59 31 101 46 86 32z m-359 -101 c-18 -19 -36 -32 -39 -29 -5 5 57 63
68 64 3 0 -10 -16 -29 -35z m2230 -381 c0 -8 -5 -12 -10 -9 -6 4 -8 11 -5 16
9 14 15 11 15 -7z m-13 -66 c-3 -7 -5 -2 -5 12 0 14 2 19 5 13 2 -7 2 -19 0
-25z m-5877 -42 c0 -8 3 -22 6 -31 4 -9 3 -15 -2 -13 -11 3 -232 -109 -256
-129 -14 -13 -17 -12 -23 8 -5 13 -3 25 2 26 17 6 237 134 248 144 13 13 25
11 25 -5z m5767 -128 c-2 -13 -4 -5 -4 17 -1 22 1 32 4 23 2 -10 2 -28 0 -40z
m-5727 7 c0 -14 -40 -35 -160 -85 -30 -13 -67 -32 -82 -42 -28 -19 -48 -17
-48 5 0 17 28 33 149 83 58 25 110 49 115 54 12 12 26 3 26 -15z m5705 -173
c-18 -78 -59 -221 -75 -257 -21 -48 -8 21 30 160 22 80 44 167 48 193 6 44 7
45 10 13 2 -18 -4 -68 -13 -109z m-5665 79 c0 -4 -21 -16 -47 -26 -27 -10 -88
-38 -136 -62 -80 -40 -117 -48 -101 -22 6 10 123 67 204 100 49 20 80 24 80
10z m5547 -113 c-3 -8 -6 -5 -6 6 -1 11 2 17 5 13 3 -3 4 -12 1 -19z m-1695
-51 c54 -18 101 -36 104 -40 13 -13 -142 35 -191 59 -61 30 -39 25 87 -19z
m1669 -48 c-12 -39 -24 -69 -26 -67 -2 2 6 36 17 76 12 40 23 70 26 68 2 -3
-6 -37 -17 -77z m-1706 -37 c33 -11 98 -28 145 -37 47 -10 92 -21 100 -26 22
-14 -92 0 -180 22 -75 19 -240 93 -240 108 0 4 26 -5 58 -20 31 -15 84 -36
117 -47z m-161 -31 c68 -39 201 -84 306 -105 130 -26 157 -36 80 -30 -129 11
-301 67 -405 132 -63 40 -50 42 19 3z m-19 -83 c33 -20 112 -56 175 -81 63
-25 124 -48 135 -52 17 -7 17 -9 4 -12 -24 -6 -237 77 -304 118 -31 19 -71 47
-88 63 -35 31 -31 29 78 -36z m70 -137 c96 -46 160 -70 290 -107 33 -9 54 -19
47 -21 -16 -6 -188 43 -275 78 -77 31 -186 95 -237 140 -33 28 -32 28 20 -5
30 -20 100 -58 155 -85z m-135 -27 c8 -6 60 -35 115 -63 55 -28 89 -49 75 -46
-47 11 -205 96 -245 131 l-40 36 40 -23 c22 -12 47 -28 55 -35z m-3231 12 c-2
-2 -42 -27 -89 -56 -47 -29 -96 -61 -109 -71 -22 -18 -41 -17 -41 0 0 5 33 28
73 52 39 24 90 56 111 71 27 19 43 25 50 18 5 -5 8 -11 5 -14z m2935 -58 c10
-15 15 -28 12 -28 -7 0 -66 87 -66 97 0 10 31 -29 54 -69z m759 55 c-7 -2 -19
-2 -25 0 -7 3 -2 5 12 5 14 0 19 -2 13 -5z m-3603 -42 c0 -13 -226 -161 -247
-161 -34 0 -15 23 49 58 40 23 96 56 123 76 50 35 75 44 75 27z m3182 -99
c-11 -3 -96 50 -107 68 -3 5 22 -7 56 -27 34 -20 57 -39 51 -41z m-3107 38 c3
-5 -38 -39 -92 -74 -54 -36 -107 -74 -117 -85 -14 -16 -23 -18 -37 -10 -11 5
-19 14 -19 18 0 12 229 158 252 160 4 1 10 -3 13 -9z m5271 -108 c65 -33 251
-178 242 -188 -3 -2 -34 19 -69 49 -79 66 -162 117 -261 161 -42 18 -87 40
-100 49 -26 18 126 -39 188 -71z m-5166 39 c0 -3 -28 -22 -62 -41 -34 -19 -90
-54 -125 -78 -52 -35 -67 -40 -83 -32 -11 6 -20 14 -20 19 0 7 90 64 202 127
34 19 89 23 88 5z m5357 -59 c103 -76 101 -84 -2 -10 -47 33 -88 65 -92 71 -9
14 11 2 94 -61z m-577 33 c41 -14 79 -30 85 -36 11 -12 7 -11 -100 22 -33 10
-76 22 -95 28 l-35 9 36 1 c19 1 69 -10 109 -24z m-460 0 c-47 -18 -71 -18
-40 0 14 8 36 14 50 14 22 0 21 -2 -10 -14z m-4227 -23 l27 -19 -105 -54 c-58
-30 -105 -60 -105 -68 0 -7 6 -11 13 -8 6 3 41 18 77 33 36 14 85 40 109 56
40 26 46 28 79 17 34 -11 35 -12 16 -26 -10 -8 -50 -33 -89 -55 -38 -23 -64
-43 -57 -46 14 -4 130 48 174 79 28 20 35 21 91 11 91 -17 90 -21 -15 -75 -87
-45 -175 -56 -284 -38 -72 13 -224 60 -224 70 0 3 37 26 82 51 44 25 95 55
112 67 38 27 63 28 99 5z m3367 -2 c20 -6 21 -8 5 -8 -11 0 -33 4 -50 8 -27 7
-27 8 -5 8 14 0 36 -4 50 -8z m-240 -25 c25 -13 39 -24 32 -25 -14 0 -92 38
-92 45 0 9 15 4 60 -20z m313 8 c-7 -2 -21 -2 -30 0 -10 3 -4 5 12 5 17 0 24
-2 18 -5z m237 -2 c-28 -17 -180 -17 -180 -1 0 6 39 10 98 10 60 0 91 -4 82
-9z m902 0 c32 -6 75 -18 95 -27 48 -22 172 -104 221 -146 63 -54 203 -200
242 -254 43 -57 122 -184 115 -184 -2 0 -37 46 -76 103 -133 189 -363 389
-518 450 -40 17 -220 47 -266 46 -30 -1 40 -24 131 -44 193 -42 355 -174 558
-456 45 -63 96 -161 96 -185 0 -9 -16 16 -36 54 -85 165 -326 409 -488 494
l-40 20 26 -30 c14 -16 59 -61 101 -98 120 -110 287 -326 287 -373 0 -10 -6
-7 -17 9 -53 80 -159 213 -196 247 -39 36 -185 149 -216 168 -25 15 2 -21 79
-107 81 -88 169 -208 201 -273 l20 -40 -33 40 c-90 108 -161 180 -240 244 -48
39 -90 71 -93 71 -13 0 -2 -18 36 -60 47 -52 141 -174 188 -243 49 -72 35 -93
-17 -24 -79 105 -262 280 -262 251 0 -3 13 -23 29 -43 70 -89 208 -317 198
-327 -2 -3 -28 30 -57 73 -30 43 -98 122 -152 177 -54 54 -98 102 -98 107 0 5
-4 9 -10 9 -18 0 -11 -16 28 -66 51 -65 113 -166 161 -261 66 -131 58 -146
-14 -26 -37 62 -97 143 -132 180 -35 37 -63 64 -61 58 2 -5 32 -68 66 -138 35
-71 62 -131 59 -133 -2 -2 -21 22 -42 53 -21 32 -56 81 -79 108 -22 28 -41 52
-43 54 -2 2 -6 2 -9 -2 -3 -3 10 -44 30 -91 48 -112 72 -182 80 -237 6 -39 3
-35 -29 40 -44 103 -117 231 -147 257 -19 17 -21 17 -15 2 42 -117 78 -235 86
-288 18 -111 11 -119 -18 -20 -38 127 -64 193 -106 265 -36 62 -45 57 -21 -12
20 -56 48 -277 44 -348 l-3 -60 -13 90 c-16 110 -34 182 -62 258 -23 62 -46
78 -36 25 5 -32 9 -238 5 -343 -1 -34 -7 -3 -19 94 -17 133 -39 227 -60 261
-16 26 -19 6 -10 -66 8 -65 -2 -389 -13 -400 -2 -2 -7 55 -11 128 -13 243 -37
300 -54 131 -10 -93 -40 -233 -109 -501 -22 -86 -28 -71 -9 25 48 252 70 473
47 487 -5 3 -11 -13 -14 -37 -3 -23 -12 -62 -20 -87 -8 -25 -27 -99 -42 -165
-32 -142 -115 -391 -187 -563 -61 -143 -76 -150 -22 -11 41 107 125 364 148
454 14 57 40 275 33 282 -3 3 -44 -127 -102 -322 -43 -143 -111 -319 -181
-465 -97 -204 -119 -243 -134 -248 -12 -4 -12 -1 1 19 34 53 180 412 222 549
63 201 127 462 127 514 0 47 -21 -8 -59 -157 -66 -255 -180 -542 -360 -906
-61 -124 -112 -230 -114 -235 -3 -6 -8 -8 -12 -3 -8 7 67 194 152 377 51 108
69 155 159 403 60 165 80 241 53 194 -6 -10 -28 -67 -50 -127 -21 -60 -43
-117 -48 -127 -6 -10 -25 -54 -44 -98 -157 -364 -392 -827 -489 -963 -44 -62
-82 -111 -85 -108 -2 2 21 46 53 98 31 51 77 129 101 173 48 88 136 286 129
292 -6 6 -26 -25 -132 -202 -53 -88 -119 -194 -147 -235 -61 -90 -169 -229
-179 -229 -8 -1 56 106 160 272 73 116 146 247 139 253 -2 3 -41 -51 -86 -118
-129 -194 -168 -247 -244 -337 -40 -46 -87 -104 -105 -128 -19 -25 -36 -42
-39 -39 -6 6 69 135 103 176 11 14 39 52 60 85 60 90 59 89 42 79 -18 -11 -83
-86 -212 -244 -95 -116 -136 -160 -136 -144 0 15 40 75 120 184 41 56 81 111
89 121 8 11 12 22 9 24 -6 6 -159 -153 -267 -278 -46 -54 -86 -95 -88 -93 -8
8 26 60 112 171 47 60 85 114 85 120 0 5 -31 -24 -67 -65 -37 -41 -105 -113
-150 -160 -45 -47 -89 -94 -97 -105 -9 -11 -15 -15 -16 -10 0 17 57 106 115
179 30 39 53 72 50 74 -3 4 -209 -205 -283 -288 -17 -19 -32 -30 -32 -24 0 18
55 96 114 162 31 34 56 65 56 68 0 7 -49 -27 -58 -40 -9 -14 -135 -123 -182
-157 -58 -42 -209 -125 -303 -165 -58 -25 -97 -48 -110 -67 -12 -16 -55 -62
-94 -103 -40 -40 -73 -78 -73 -84 0 -20 52 -9 137 29 114 51 287 109 498 166
214 59 612 192 743 248 119 52 214 105 278 153 48 37 48 35 3 -31 -38 -57 -67
-88 -120 -127 -56 -42 -198 -96 -208 -79 -5 8 -33 0 -92 -28 -46 -22 -113 -47
-149 -56 -78 -20 -222 -62 -385 -115 -90 -29 -359 -106 -467 -133 -21 -6 -144
-127 -177 -175 -22 -33 -62 -73 -94 -95 -41 -28 -56 -46 -61 -69 -8 -40 24
-78 63 -76 47 3 81 -2 81 -12 0 -20 -45 -49 -85 -55 -23 -4 -60 -2 -84 5 -35
9 -48 20 -76 64 -19 29 -43 81 -54 114 -26 76 -18 145 33 302 47 144 86 226
135 285 22 27 41 53 41 57 0 4 19 21 42 38 22 16 34 30 27 30 -8 0 -20 -5 -27
-12 -6 -6 -14 -9 -18 -6 -9 10 81 72 186 128 81 43 300 140 535 237 61 25 438
203 530 250 28 14 79 47 115 73 36 26 85 61 110 77 60 41 136 118 167 171 14
24 24 45 21 47 -2 2 -35 -23 -73 -56 -126 -109 -139 -101 -37 22 37 46 88 106
113 134 61 67 75 89 150 230 35 66 98 185 141 265 63 118 91 185 149 360 68
206 104 290 198 463 52 96 39 93 -73 -16 -46 -45 -76 -68 -76 -58 0 30 107
176 192 261 184 185 405 350 517 385 20 6 23 4 18 -9 -5 -14 -3 -15 13 -6 10
5 22 14 25 20 8 13 83 33 122 32 18 -1 34 2 37 6 7 12 205 14 268 3z m-1462
-96 c20 -7 80 -25 135 -40 55 -15 124 -34 153 -42 79 -22 56 -27 -40 -9 -116
22 -233 58 -304 94 -84 43 -111 68 -39 36 33 -14 76 -32 95 -39z m190 35 c47
-10 128 -22 180 -25 90 -7 143 -11 165 -15 6 -1 -7 -6 -27 -9 -91 -18 -352 22
-427 65 l-26 15 25 -6 c14 -3 63 -14 110 -25z m2449 -108 c69 -52 146 -113
171 -135 84 -74 182 -172 203 -202 l22 -30 -30 22 c-86 61 -436 362 -520 445
-20 20 -20 20 4 8 13 -7 80 -55 150 -108z m-378 91 c13 -16 12 -17 -3 -4 -10
7 -18 15 -18 17 0 8 8 3 21 -13z m-4675 -18 c22 -34 15 -38 -32 -19 -23 10
-53 14 -76 11 -50 -7 -171 -64 -199 -93 -25 -26 -49 -32 -49 -11 0 32 64 67
194 107 118 36 141 37 162 5z m2331 -54 c112 -51 224 -83 338 -97 33 -3 67 -8
74 -9 8 -1 16 -6 18 -12 6 -16 -151 -7 -222 12 -87 23 -221 82 -290 128 -71
46 -65 44 82 -22z m-152 -11 c104 -71 316 -150 400 -150 27 0 45 -5 45 -11 0
-18 -165 -4 -240 20 -69 22 -188 94 -255 156 -44 40 -21 33 50 -15z m2141 -18
c67 -53 276 -294 332 -384 50 -80 117 -226 108 -235 -3 -3 -20 25 -38 63 -73
160 -127 240 -242 365 -63 68 -148 151 -189 184 -42 33 -76 63 -76 68 -1 12
51 -18 105 -61z m-4332 -4 c17 -24 22 -88 7 -88 -9 0 -22 35 -34 88 -7 28 7
28 27 0z m2235 -113 c36 -20 80 -47 96 -61 30 -26 30 -26 5 -20 -48 10 -159
66 -194 97 -20 17 -50 49 -68 71 l-32 41 63 -47 c35 -25 93 -62 130 -81z
m-2386 62 c3 -7 -4 -19 -14 -25 -25 -16 -24 -32 1 -32 11 0 20 5 20 11 0 5 5
7 11 4 13 -9 -16 -42 -53 -61 -37 -19 -37 -19 -54 21 -21 51 -18 64 19 80 41
18 63 19 70 2z m4854 -202 c56 -70 148 -217 166 -267 13 -36 -2 -16 -39 50
-46 83 -139 217 -207 297 -32 38 -39 49 -18 30 18 -16 62 -66 98 -110z m-4627
75 c6 -11 9 -20 8 -20 -2 -1 -24 -3 -49 -5 -48 -4 -239 -83 -271 -112 -39 -35
-67 18 -28 57 45 45 195 98 282 99 38 1 50 -3 58 -19z m15 -100 c-13 -20 -265
-86 -300 -78 -21 5 75 37 200 69 83 20 108 23 100 9z m5309 -109 c-2 -3 -12 3
-22 13 -16 17 -16 18 5 5 12 -7 20 -15 17 -18z m116 -88 c0 -7 -58 36 -66 49
-4 7 9 -1 29 -16 20 -16 37 -30 37 -33z m-5245 -97 c14 -43 24 -81 21 -83 -10
-11 -76 150 -76 185 0 32 30 -23 55 -102z m-310 69 c93 -17 121 -39 111 -90
-16 -79 -83 -110 -221 -100 -44 3 -87 5 -95 4 -8 -1 -58 0 -110 1 -105 2 -132
12 -148 57 -21 62 28 129 105 143 57 9 267 1 358 -15z m5684 -270 c37 -55 86
-131 108 -170 37 -67 123 -263 138 -315 6 -23 5 -23 -14 5 -31 44 -26 10 9
-63 17 -35 30 -69 30 -75 0 -22 -37 48 -60 114 -65 185 -167 377 -315 594 -44
66 -85 127 -89 135 -21 42 134 -139 193 -225z m-5421 69 c12 -14 22 -31 22
-39 0 -80 -137 -142 -410 -185 -41 -6 -97 -18 -123 -26 -81 -23 -137 12 -137
86 0 40 24 87 50 95 11 3 64 6 117 6 189 0 279 19 383 79 40 23 65 19 98 -16z
m3912 -58 c0 -5 -7 -1 -15 10 -8 10 -14 24 -14 29 0 6 6 1 14 -9 8 -11 15 -24
15 -30z m376 -79 c83 -164 141 -350 169 -547 17 -122 20 -264 5 -255 -5 3 -10
34 -10 68 -1 208 -89 556 -194 765 -35 69 -47 103 -25 72 5 -8 30 -55 55 -103z
m-4167 28 c0 -18 -1 -17 -14 5 -8 14 -14 34 -14 45 0 18 1 17 14 -5 8 -14 14
-34 14 -45z m4045 3 c49 -90 102 -222 131 -330 34 -126 75 -350 75 -410 0 -69
-21 -58 -25 12 -2 51 -10 93 -70 370 -21 97 -92 295 -136 382 -32 62 -13 43
25 -24z m-171 -115 c58 -126 101 -258 123 -378 9 -49 20 -98 25 -107 16 -30
38 -21 45 17 16 87 -33 307 -115 514 -25 61 -23 81 2 24 9 -21 29 -69 46 -108
44 -105 77 -207 105 -334 16 -73 32 -118 43 -126 33 -25 38 -358 8 -590 -17
-133 -57 -324 -75 -353 -15 -26 -13 -1 10 121 33 181 50 391 49 595 0 155 -3
192 -14 192 -20 0 -30 -21 -14 -31 11 -7 11 -11 2 -17 -8 -5 -14 -57 -18 -152
-6 -177 -18 -278 -51 -439 -29 -140 -47 -197 -60 -193 -5 2 -8 9 -7 15 62 389
63 404 65 591 1 92 -2 140 -10 148 -14 14 -14 18 -17 -62 -1 -36 -6 -99 -11
-140 -4 -41 -9 -79 -9 -85 -37 -347 -124 -703 -248 -1004 -45 -111 -170 -329
-197 -346 -12 -8 -13 17 -1 31 5 5 38 65 74 134 72 137 108 234 168 445 93
327 134 529 145 715 2 47 7 101 9 121 3 26 1 39 -9 42 -10 4 -15 -10 -19 -56
-38 -420 -86 -618 -244 -1012 -68 -169 -125 -270 -253 -449 -53 -74 -117 -133
-190 -176 -85 -51 -141 -70 -206 -70 -52 0 -84 14 -39 16 36 3 204 74 259 110
94 62 211 214 293 379 59 117 169 425 153 425 -9 0 -47 -77 -112 -225 -54
-125 -56 -129 -117 -229 -58 -96 -155 -228 -193 -263 -62 -58 -254 -143 -322
-143 -20 0 -203 119 -276 179 -25 21 -81 62 -125 91 -94 63 -196 143 -190 149
9 8 214 -114 350 -209 146 -101 242 -156 253 -144 4 4 2 8 -4 11 -54 19 -373
256 -484 358 -36 33 -81 73 -100 88 -58 44 -13 31 69 -22 42 -26 94 -58 116
-69 22 -11 64 -39 94 -61 30 -23 57 -38 60 -35 8 7 -23 31 -89 69 -29 17 -89
63 -134 103 -44 40 -100 84 -124 98 -23 14 -42 27 -42 29 0 9 50 -11 78 -32
58 -43 48 -15 -17 51 l-63 63 27 42 c33 49 16 57 173 -88 63 -58 131 -131 153
-162 33 -49 71 -80 84 -67 2 2 -17 28 -42 58 -36 44 -42 56 -29 58 22 5 81
-34 169 -110 37 -32 85 -69 106 -82 45 -29 112 -49 123 -38 5 5 -32 48 -82 96
l-90 87 21 29 c12 16 46 45 75 65 47 33 104 93 104 110 0 4 -29 -16 -64 -44
-97 -78 -101 -68 -19 51 114 167 135 200 178 286 68 136 80 186 80 337 -1 145
-6 168 -86 377 -48 125 -66 199 -31 128 21 -44 54 -92 58 -87 2 2 -5 30 -16
61 -13 39 -15 55 -7 47 14 -11 41 -68 77 -164 13 -31 26 -60 31 -63 14 -8 10
32 -15 154 -13 61 -20 112 -17 112 16 0 78 -152 101 -247 6 -29 16 -53 21 -53
11 0 11 0 -1 118 -6 53 -20 130 -31 171 -22 81 -19 100 6 51 58 -112 102 -296
112 -468 3 -59 7 -109 9 -111 14 -16 19 31 18 172 -1 178 -14 270 -63 425 -25
79 -26 91 -11 77 25 -23 53 -91 91 -225 35 -123 36 -126 44 -118 14 14 -41
420 -65 484 -5 13 -6 24 -1 24 13 0 78 -148 96 -220 25 -101 36 -130 47 -130
22 0 -11 224 -53 359 -20 67 -18 88 6 55 43 -58 117 -336 139 -522 22 -190 35
-42 16 178 -13 144 -32 248 -69 378 -15 56 -27 102 -25 102 10 0 55 -105 78
-180 32 -103 86 -396 86 -465 0 -55 12 -86 25 -65 4 7 8 82 8 168 2 160 -3
196 -53 393 -11 41 -35 115 -55 163 -20 49 -33 91 -30 94 9 9 81 -158 119
-277 21 -63 46 -173 58 -245 32 -205 39 -236 49 -236 10 0 11 13 11 190 0 89
-6 155 -22 229 -20 99 -85 289 -130 383 -16 34 -17 38 -3 19 10 -13 40 -71 66
-128z m413 80 c70 -163 130 -374 154 -543 6 -47 16 -112 21 -146 11 -77 12
-141 0 -148 -5 -3 -12 27 -16 67 -24 253 -57 421 -123 625 -58 178 -69 220
-36 145z m489 -132 c25 -57 52 -122 60 -145 45 -135 85 -358 84 -465 l-1 -76
-14 115 c-27 228 -78 420 -165 625 -46 107 -17 64 36 -54z m404 -81 c86 -170
163 -404 186 -565 11 -77 -10 -42 -30 50 -43 205 -103 380 -191 560 -35 72
-57 121 -48 110 8 -11 46 -81 83 -155z m-5193 135 c24 -24 30 -49 18 -80 -8
-21 -103 -69 -180 -90 -32 -9 -95 -30 -139 -45 -130 -47 -251 -80 -286 -80
-60 1 -106 56 -95 115 12 60 21 64 289 136 232 62 248 65 315 67 44 1 58 -3
78 -23z m3381 -49 c-14 -26 -24 -46 -21 -46 2 0 45 20 94 45 49 25 93 45 97
45 3 0 -27 -23 -68 -51 -168 -116 -348 -296 -555 -556 -125 -157 -133 -169
-258 -420 -71 -142 -161 -321 -200 -398 -38 -77 -77 -154 -85 -172 -21 -42
-31 -41 -31 3 0 22 24 93 59 178 68 162 222 485 250 525 11 15 47 79 81 142
84 155 156 262 241 355 40 44 93 111 118 149 61 91 128 182 141 190 12 7 -33
-88 -78 -166 -17 -31 -32 -60 -32 -65 0 -19 155 146 206 219 60 84 82 97 41
23z m1233 -168 c42 -126 66 -239 76 -362 10 -103 -1 -78 -21 49 -18 119 -61
290 -99 400 -38 111 -38 112 -17 73 11 -20 39 -92 61 -160z m752 -31 c84 -182
163 -383 213 -538 33 -103 37 -131 47 -294 14 -227 14 -602 1 -635 -13 -30
-14 -24 -43 320 -46 534 -66 660 -151 920 -32 98 -113 299 -155 382 -13 26
-24 51 -24 55 1 19 48 -69 112 -210z m-637 41 c45 -135 87 -400 65 -413 -6 -4
-10 8 -10 28 0 88 -62 372 -114 522 -4 11 0 8 9 -7 8 -15 31 -74 50 -130z
m-4559 -153 c39 -115 95 -273 123 -350 51 -139 56 -169 25 -163 -10 2 -29 42
-53 113 -21 61 -62 175 -90 255 -56 157 -101 322 -101 367 1 26 1 27 12 8 7
-11 44 -114 84 -230z m4338 135 c48 -177 87 -430 67 -430 -6 0 -11 6 -11 13
-1 81 -51 365 -84 472 -18 59 -19 62 -7 50 5 -6 21 -53 35 -105z m502 -93 c47
-138 74 -264 78 -372 3 -49 2 -74 0 -55 -23 173 -67 362 -129 545 -6 19 -6 19
5 2 7 -10 27 -64 46 -120z m-5056 68 c24 -25 24 -26 6 -58 -40 -69 -57 -80
-255 -162 -62 -27 -125 -58 -140 -71 l-26 -22 -40 20 c-53 27 -75 55 -75 99 0
49 23 73 90 94 30 10 100 35 154 57 93 37 194 65 242 67 11 1 31 -10 44 -24z
m428 -24 c20 -10 46 -29 57 -41 l20 -23 -24 13 c-13 6 -44 25 -69 41 -52 33
-41 39 16 10z m4808 -230 c20 -89 43 -235 28 -176 -3 11 -19 74 -35 140 -17
66 -39 149 -50 184 -10 35 -19 68 -18 75 1 26 53 -127 75 -223z m-4151 103
c50 -19 146 -56 215 -81 68 -26 119 -48 112 -51 -6 -2 -41 8 -76 22 -35 14
-67 26 -71 26 -6 0 -213 84 -270 110 -11 5 -15 9 -10 9 6 1 51 -15 100 -35z
m-990 -233 c15 -42 42 -116 60 -166 39 -109 48 -145 36 -145 -17 0 -105 242
-147 405 -13 51 26 -21 51 -94z m925 -47 c162 -64 299 -120 304 -125 14 -13
-41 -11 -89 2 -146 39 -584 237 -593 267 -3 9 10 6 40 -7 23 -11 176 -73 338
-137z m-1036 118 c20 -38 147 -373 149 -392 2 -19 -85 -50 -133 -47 l-35 2
-57 168 c-77 227 -78 231 -38 247 18 7 34 9 39 4 4 -5 20 -40 34 -79 97 -261
111 -295 127 -295 5 0 -20 86 -56 192 -35 106 -64 200 -64 210 0 27 18 22 34
-10z m3180 -184 c82 -167 101 -251 93 -412 -3 -61 -12 -131 -19 -156 l-14 -45
-37 58 c-20 31 -54 83 -74 115 -55 86 -147 177 -203 201 -27 12 -52 26 -55 31
-10 16 41 100 101 169 30 34 59 72 65 84 23 46 54 87 66 87 6 0 41 -60 77
-132z m-2428 85 c25 -20 50 -45 55 -56 11 -19 10 -19 -18 -2 -29 18 -101 95
-88 95 3 0 27 -16 51 -37z m-491 -143 c13 -35 22 -66 20 -69 -3 -2 -9 9 -15
25 -6 16 -24 64 -40 106 -17 43 -30 81 -29 85 1 11 36 -69 64 -147z m5037 70
c3 -17 1 -33 -4 -36 -4 -3 -8 11 -8 30 0 44 6 47 12 6z m-955 -219 c-5 -134
-12 -204 -32 -296 -39 -183 -75 -319 -87 -330 -7 -7 -9 -3 -6 15 3 14 21 102
41 195 49 234 57 300 62 466 4 176 3 168 17 145 7 -13 9 -74 5 -195z m314 167
c2 -109 -4 -255 -12 -262 -5 -6 -8 45 -6 137 1 81 5 147 10 147 4 0 7 -10 8
-22z m106 -195 c-5 -168 -11 -226 -28 -272 -18 -46 -20 -12 -4 67 10 48 17
138 18 226 1 80 6 146 11 146 4 0 6 -75 3 -167z m-342 -250 c-16 -115 -31
-171 -42 -160 -3 4 -1 26 5 50 13 51 33 238 37 357 2 47 5 87 6 90 12 20 7
-243 -6 -337z m1095 255 c12 -57 46 -341 54 -453 23 -312 20 -360 -35 -645
-17 -85 -34 -182 -39 -215 l-7 -60 -2 70 c0 39 4 97 9 130 53 319 58 846 10
1150 -11 68 -12 75 -6 75 2 0 9 -23 16 -52z m-3844 31 c24 -6 46 -15 49 -19 3
-4 -35 -49 -84 -99 -79 -82 -95 -94 -146 -108 -32 -9 -68 -26 -81 -38 -13 -12
-67 -39 -119 -60 -94 -37 -121 -53 -209 -128 -63 -54 -77 -42 -26 22 27 34 35
49 22 42 -23 -12 -86 -87 -95 -113 -9 -25 -27 -22 -27 5 0 19 -7 14 -48 -31
-32 -36 -57 -54 -79 -58 -22 -4 -33 -3 -33 5 0 17 34 81 67 123 26 35 167 150
196 161 8 3 9 8 2 15 -7 7 -29 4 -70 -8 -32 -11 -61 -17 -63 -15 -10 10 186
164 269 212 43 24 185 80 237 92 54 13 186 13 238 0z m-1220 -28 c16 -32 4
-56 -53 -104 -54 -45 -70 -41 -24 6 45 47 32 74 -32 67 -10 -1 -46 -19 -79
-40 -77 -51 -161 -83 -218 -84 -43 -1 -45 0 -45 27 0 28 4 30 135 72 74 24
158 53 185 64 66 27 116 24 131 -8z m2597 -207 c42 -55 127 -220 127 -248 0
-36 -31 5 -78 104 -40 81 -59 108 -135 183 -75 74 -94 87 -113 83 -16 -4 -22
-2 -20 6 3 7 7 26 11 41 l6 29 82 -75 c45 -41 99 -96 120 -123z m-2613 16 c37
-39 45 -79 27 -122 -23 -55 -114 -108 -184 -108 -114 0 -183 138 -92 185 36
19 79 19 107 -1 37 -25 24 -84 -19 -84 -27 0 -44 -27 -29 -45 16 -19 60 -19
104 -1 52 22 76 51 76 91 0 39 -24 95 -41 95 -6 0 -7 5 -4 10 10 17 26 11 55
-20z m-230 10 c-8 -5 -19 -10 -25 -10 -5 0 -3 5 5 10 8 5 20 10 25 10 6 0 3
-5 -5 -10z m2069 -17 c-72 -89 -199 -233 -199 -225 0 14 196 242 209 242 2 0
-3 -8 -10 -17z m-809 -58 c-7 -9 -15 -13 -17 -11 -7 7 7 26 19 26 6 0 6 -6 -2
-15z m1010 -28 c0 -11 -52 -152 -75 -202 -15 -33 -38 -91 -51 -129 -26 -76
-61 -141 -107 -198 -54 -68 -63 -43 -18 49 30 61 48 113 37 113 -3 0 -27 -28
-53 -63 -53 -69 -204 -217 -225 -221 -16 -2 -67 -32 -118 -69 -19 -14 -48 -29
-65 -33 -29 -6 -29 -5 20 46 28 28 91 85 140 125 168 136 258 240 312 358 30
67 40 70 18 6 l-15 -44 36 40 c20 22 54 72 76 110 64 109 68 115 78 115 6 0
10 -1 10 -3z m2580 -207 c-28 -192 -102 -474 -136 -516 -15 -19 -15 -18 -9 1
50 141 113 402 137 570 8 56 14 79 17 60 2 -16 -2 -68 -9 -115z m-124 -32
c-20 -125 -86 -356 -116 -401 -25 -38 -26 -38 35 151 25 79 55 193 67 253 12
60 23 107 26 105 2 -2 -4 -51 -12 -108z m239 30 c-12 -114 -16 -142 -41 -247
-30 -129 -55 -214 -60 -208 -2 2 3 26 11 53 18 59 71 326 80 407 4 31 9 57 12
57 3 0 2 -28 -2 -62z m-1129 -20 c-3 -13 -10 -57 -17 -98 -29 -190 -182 -555
-297 -708 -46 -61 -33 -24 40 114 40 77 94 193 121 259 46 116 137 408 137
440 0 8 5 15 10 15 6 0 8 -10 6 -22z m325 -179 c-29 -116 -57 -198 -46 -134 4
25 48 197 61 244 3 8 7 12 9 9 3 -3 -8 -56 -24 -119z m1006 -6 c-2 -16 -4 -5
-4 22 0 28 2 40 4 28 2 -13 2 -35 0 -50z m-1263 -15 c-23 -133 -175 -498 -238
-573 -35 -41 -32 -16 4 44 74 119 219 480 220 544 0 9 4 17 10 17 5 0 7 -14 4
-32z m1361 -75 c-15 -189 -48 -436 -71 -522 -63 -242 -169 -446 -341 -659 -23
-28 -59 -78 -79 -110 -75 -117 -242 -325 -254 -317 -13 8 17 86 57 152 85 137
136 231 160 291 17 42 33 66 48 72 28 11 56 45 77 96 158 372 245 660 282 930
8 55 14 82 15 62 1 -41 -43 -348 -60 -413 -42 -165 -164 -501 -205 -562 -25
-39 2 -25 41 20 138 161 254 514 306 935 15 119 33 138 24 25z m-1279 -60
c-28 -99 -99 -280 -115 -296 -22 -22 -11 19 33 123 24 58 57 148 73 200 15 52
29 87 31 77 2 -9 -8 -56 -22 -104z m-4896 80 c102 -27 189 -100 226 -188 8
-21 13 -39 10 -42 -2 -2 -7 4 -10 15 -10 29 -125 136 -174 161 -67 34 -192 46
-298 27 -322 -55 -513 -338 -516 -762 0 -61 5 -137 12 -170 24 -119 95 -343
127 -396 2 -5 2 -8 -1 -8 -12 0 -60 108 -82 184 -72 250 -87 321 -86 406 2
277 58 447 200 609 76 86 120 116 216 147 137 44 258 49 376 17z m-307 -117
c-105 -37 -187 -94 -233 -162 -37 -52 -86 -157 -100 -212 -9 -34 -9 -33 -6 18
8 105 118 278 210 328 63 34 142 61 181 61 36 0 31 -3 -52 -33z m6253 -38
c-12 -102 -73 -391 -101 -475 -36 -109 -159 -362 -163 -336 -2 12 24 75 57
142 34 66 72 155 86 196 29 86 75 282 101 433 19 113 30 136 20 40z m-5815
-25 c41 -42 72 -98 66 -116 -2 -7 -23 18 -46 56 -24 37 -59 81 -79 98 -35 29
-35 30 -7 16 17 -9 46 -33 66 -54z m809 -27 c0 -2 -8 -10 -17 -17 -16 -13 -17
-12 -4 4 13 16 21 21 21 13z m4031 -117 c-33 -97 -108 -242 -171 -332 -34 -49
-65 -86 -68 -83 -3 4 16 38 43 77 50 74 131 226 178 338 33 76 45 76 18 0z
m-5451 -18 c-5 -11 -28 -47 -51 -82 -56 -83 -95 -172 -108 -244 -24 -132 -6
-337 45 -493 79 -241 320 -541 560 -697 121 -79 248 -148 357 -195 145 -62
550 -196 642 -213 115 -22 224 -31 205 -18 -8 6 -10 11 -4 11 5 0 14 -4 20 -8
22 -20 367 -69 646 -93 164 -13 354 -6 387 15 8 5 53 10 100 10 47 1 120 7
161 14 41 6 143 19 225 27 182 20 610 122 803 192 134 48 442 186 527 236 77
45 160 110 147 115 -7 2 -53 -12 -102 -32 -100 -40 -168 -58 -175 -46 -9 15
32 39 155 90 176 74 201 87 332 183 114 83 150 107 163 107 11 0 -90 -115
-186 -212 -50 -52 -79 -88 -70 -88 35 0 106 48 291 196 157 126 26 -22 -205
-230 -93 -84 -178 -138 -365 -231 -74 -37 -146 -77 -160 -88 l-25 -20 26 6
c67 16 385 185 455 241 19 16 68 49 107 74 40 24 107 75 150 114 43 39 81 68
84 64 11 -11 -129 -157 -196 -203 -36 -25 -91 -65 -121 -88 -60 -45 -264 -163
-320 -185 -19 -7 -89 -36 -155 -63 -288 -119 -586 -197 -755 -197 -103 0 -61
16 131 50 121 21 215 44 302 75 182 63 267 98 267 107 0 11 -29 3 -172 -43
-64 -21 -165 -49 -225 -63 -93 -21 -481 -96 -498 -96 -3 0 -4 -3 -2 -7 3 -5
30 -7 61 -7 56 1 76 -11 33 -20 -133 -28 -170 -35 -222 -40 -80 -7 -294 -19
-322 -17 -13 0 -23 -3 -23 -8 0 -9 -80 -6 -127 5 -17 3 -23 0 -23 -13 0 -15
-2 -16 -10 -3 -5 8 -20 16 -32 17 -38 4 -231 2 -238 -2 -6 -4 -245 9 -385 20
-38 4 -131 15 -205 26 -74 11 -151 22 -170 25 -175 24 -345 59 -445 90 -66 20
-149 45 -185 55 -268 74 -564 205 -764 338 -66 43 -282 305 -360 435 -110 183
-177 430 -180 662 l-1 131 43 84 c49 94 151 249 164 249 5 0 4 -9 -2 -19z
m490 -52 c0 -6 -11 -24 -25 -41 -14 -16 -25 -41 -25 -54 0 -14 -4 -22 -10 -19
-18 11 -11 46 18 86 27 39 42 49 42 28z m3265 -101 c247 -157 433 -297 407
-306 -7 -2 -49 23 -94 55 -46 33 -128 90 -183 128 -118 81 -315 225 -315 231
0 8 41 -16 185 -108z m-1995 88 c0 -7 -101 -38 -106 -33 -3 3 14 12 38 20 44
16 68 20 68 13z m1955 -194 c156 -96 345 -235 345 -253 0 -14 -521 329 -536
352 -9 15 86 -35 191 -99z m-1065 47 c-13 -45 -83 -163 -155 -259 -79 -107
-291 -442 -338 -535 -19 -39 -40 -90 -47 -114 -23 -86 -97 -168 -185 -206 -54
-23 -171 -29 -280 -16 -49 6 -153 16 -230 21 -184 13 -242 23 -410 72 -159 47
-228 52 -320 25 -78 -23 -139 -15 -177 24 -33 32 -36 59 -9 83 30 27 167 65
258 72 93 8 115 16 95 36 -9 9 -51 13 -150 13 -144 -1 -142 0 -264 -63 -20
-10 -5 50 22 87 61 84 115 102 339 110 102 4 166 10 168 17 5 16 -141 48 -252
54 l-100 5 22 22 c12 12 45 29 74 37 46 14 59 14 123 0 130 -28 229 -44 237
-38 15 9 10 32 -8 37 -10 3 15 5 55 6 65 1 79 -3 142 -35 84 -44 145 -53 222
-30 89 26 151 99 245 291 42 86 80 152 84 148 15 -15 -19 -184 -56 -286 -63
-175 -136 -292 -203 -326 -89 -46 -144 -54 -275 -41 -176 17 -218 10 -97 -15
68 -14 133 -20 230 -20 124 0 138 2 172 23 77 48 137 156 221 397 46 132 86
234 87 225 1 -20 -35 -164 -61 -236 -77 -223 -179 -373 -292 -431 -47 -23
-156 -42 -216 -37 -14 1 -59 5 -100 9 -45 4 -71 3 -67 -3 11 -19 143 -37 264
-36 110 1 127 4 174 27 29 14 54 24 57 22 10 -10 -33 -43 -97 -76 -65 -32 -71
-34 -187 -34 -66 0 -149 3 -185 7 l-65 7 75 -20 c41 -10 110 -22 152 -26 85
-7 243 11 297 33 49 20 50 10 2 -22 -23 -14 -41 -31 -41 -35 0 -16 53 -9 99
11 56 26 63 25 55 -6 -7 -26 -6 -26 37 -19 54 9 118 33 142 53 10 9 31 43 48
76 45 88 72 131 76 119 2 -6 -8 -35 -22 -63 -15 -29 -24 -54 -22 -56 7 -7 23
18 41 66 26 67 138 259 235 400 47 69 103 152 126 185 64 94 197 269 214 282
25 19 30 15 21 -18z m257 -124 c24 -27 55 -72 70 -99 56 -99 135 -193 319
-378 174 -175 285 -268 321 -268 7 0 93 -40 189 -90 96 -49 207 -99 247 -111
117 -35 136 -61 21 -29 -93 25 -213 77 -335 145 -56 31 -104 54 -106 51 -10
-10 28 -56 75 -91 62 -46 301 -168 380 -194 35 -11 103 -26 150 -32 48 -7 91
-16 96 -20 6 -5 0 -19 -14 -34 -20 -21 -30 -24 -59 -20 -109 18 -184 43 -297
101 -68 36 -124 59 -124 53 0 -6 9 -24 21 -41 12 -16 19 -31 17 -33 -22 -23
-415 353 -528 505 -35 47 -59 76 -55 65 4 -11 18 -55 30 -98 l23 -79 -30 29
c-38 35 -148 183 -223 299 -67 104 -244 403 -269 454 l-17 35 28 -35 c15 -19
47 -57 70 -85z m778 -52 c193 -130 279 -192 284 -205 4 -13 10 -16 -124 71
-122 78 -385 261 -385 267 0 11 96 -46 225 -133z m1075 123 c0 -7 -39 -54 -87
-103 -77 -79 -100 -97 -183 -136 -92 -44 -184 -72 -263 -79 -59 -6 -38 13 37
34 108 29 219 75 287 119 70 45 179 146 179 166 0 7 7 13 15 13 8 0 15 -6 15
-14z m-1984 -53 c23 -41 100 -167 167 -272 l17 -28 -152 -6 c-144 -5 -273 -28
-352 -62 -17 -7 -17 -6 -2 22 8 17 48 73 89 124 41 52 100 133 131 182 31 48
60 87 66 87 5 0 21 -21 36 -47z m2643 -24 c-36 -72 -69 -122 -76 -116 -2 3 3
20 12 39 24 46 89 147 93 143 2 -1 -11 -32 -29 -66z m509 -61 c-105 -221 -212
-392 -282 -448 l-31 -25 20 26 c11 15 41 53 66 85 52 67 144 223 215 366 26
54 50 95 52 93 2 -2 -16 -46 -40 -97z m-2843 -69 c31 -44 114 -139 184 -212
141 -145 246 -265 239 -272 -6 -6 -328 329 -371 386 -46 61 -130 192 -118 185
5 -4 35 -42 66 -87z m1725 81 c0 -18 -70 -88 -139 -139 -37 -28 -105 -68 -152
-90 -81 -39 -249 -87 -249 -71 0 5 33 18 73 30 143 43 382 184 434 255 19 25
33 32 33 15z m90 -75 c-100 -129 -218 -218 -382 -287 -108 -46 -92 -25 28 35
137 69 213 125 310 233 42 46 79 82 82 79 3 -2 -14 -29 -38 -60z m-2936 -2
c-23 -106 -132 -387 -134 -345 0 7 8 29 19 50 10 20 35 87 54 147 47 144 58
175 63 175 2 0 2 -12 -2 -27z m4003 -109 c-69 -138 -216 -360 -217 -328 0 11
16 37 82 129 42 59 178 295 178 309 0 5 3 7 6 4 3 -3 -19 -55 -49 -114z
m-2307 55 c30 -20 69 -52 85 -70 34 -37 32 -36 -82 50 -46 34 -83 64 -83 67 0
6 11 0 80 -47z m2430 -56 c-18 -32 -47 -83 -63 -113 -39 -71 -146 -220 -158
-220 -5 0 13 30 40 68 60 84 140 211 176 281 14 29 29 50 32 47 3 -3 -9 -31
-27 -63z m-565 -39 c-44 -64 -175 -207 -183 -200 -2 3 23 35 56 71 33 36 82
94 108 129 59 78 72 78 19 0z m-2090 -79 c34 -28 73 -58 86 -67 16 -12 19 -17
9 -17 -24 -1 -121 71 -212 158 -64 60 -61 74 3 19 28 -23 80 -66 114 -93z
m1526 118 c-27 -51 -261 -246 -276 -231 -3 3 27 30 67 61 40 30 105 85 143
121 39 36 71 66 73 66 1 0 -2 -8 -7 -17z m714 -40 c-39 -62 -105 -150 -139
-188 -30 -33 -27 -26 15 35 70 100 130 180 136 180 3 0 -3 -12 -12 -27z
m-2653 -108 c6 -14 8 -28 4 -32 -4 -4 -46 -10 -94 -13 l-87 -5 75 -18 c93 -23
126 -35 141 -53 9 -11 -10 -12 -113 -7 -83 4 -120 2 -113 -5 6 -5 62 -26 126
-46 64 -20 122 -43 129 -51 11 -13 5 -15 -46 -15 -33 0 -86 7 -119 15 -72 17
-78 18 -70 6 14 -24 235 -121 310 -136 44 -9 82 -18 84 -21 3 -2 -1 -10 -8
-17 -8 -8 -47 -12 -124 -11 -131 2 -197 20 -366 103 -59 29 -118 51 -135 51
-34 -1 -114 -20 -133 -33 -30 -19 -130 -47 -168 -47 -72 0 -85 37 -33 95 40
46 76 64 223 110 119 37 145 49 145 67 0 12 -70 2 -199 -28 -57 -14 -106 -22
-109 -19 -3 3 12 23 33 45 66 65 177 87 458 89 l177 1 12 -25z m2912 -307
c-145 -324 -310 -598 -360 -598 -29 0 4 67 175 360 121 207 214 347 219 332 2
-6 -13 -49 -34 -94z m-2136 -13 c99 -53 276 -125 306 -125 8 0 18 -5 22 -11
16 -26 -187 40 -303 98 -65 33 -149 91 -132 93 3 0 51 -25 107 -55z m1892
-142 c-48 -146 -167 -344 -297 -494 -81 -93 -211 -219 -227 -219 -3 0 -6 11
-6 23 0 16 36 64 106 143 126 141 253 308 319 419 82 137 107 176 112 171 3
-3 -1 -22 -7 -43z m-5783 -229 c-4 -5 -80 103 -101 143 -38 75 -11 50 44 -41
33 -55 59 -101 57 -102z m5278 156 c-3 -5 -11 -10 -16 -10 -6 0 -7 5 -4 10 3
6 11 10 16 10 6 0 7 -4 4 -10z m1395 -6 c0 -2 -9 -4 -21 -4 -11 0 -18 4 -14
10 5 8 35 3 35 -6z m-3895 -43 c-8 -14 -72 -15 -80 -2 -3 6 14 11 37 13 50 3
52 3 43 -11z m238 10 c22 0 36 -5 32 -11 -6 -10 -231 -12 -249 -2 -27 15 55
20 217 13z m202 0 c6 -10 -126 -22 -140 -13 -5 4 4 9 20 12 49 9 114 9 120 1z
m2080 -88 c-175 -153 -365 -293 -535 -393 -61 -36 -190 -93 -196 -87 -3 3 59
42 138 87 79 46 161 96 183 112 22 16 91 63 153 103 63 41 152 108 200 149 48
41 89 72 92 69 3 -3 -13 -21 -35 -40z m1495 17 c0 -5 -4 -10 -10 -10 -5 0 -10
5 -10 10 0 6 5 10 10 10 6 0 10 -4 10 -10z m107 -6 c-3 -3 -12 -4 -19 -1 -8 3
-5 6 6 6 11 1 17 -2 13 -5z m-4632 -24 c4 -6 -5 -10 -20 -10 -15 0 -24 4 -20
10 3 6 12 10 20 10 8 0 17 -4 20 -10z m1268 -3 c-2 -4 -5 -7 -8 -7 -3 0 -12 0
-21 0 -8 0 -13 4 -10 9 7 10 42 8 39 -2z m3327 -77 c0 -5 -4 -10 -10 -10 -5 0
-10 5 -10 10 0 6 5 10 10 10 6 0 10 -4 10 -10z m65 -10 c-3 -5 -11 -10 -16
-10 -6 0 -7 5 -4 10 3 6 11 10 16 10 6 0 7 -4 4 -10z m-1518 -102 c-20 -48
-187 -213 -277 -274 -158 -106 -429 -242 -575 -287 -78 -24 -387 -110 -432
-120 -27 -6 -42 11 -22 24 8 5 52 21 99 35 129 40 424 150 525 197 102 46 290
151 380 210 74 49 149 111 238 195 37 36 70 62 73 59 3 -2 -1 -20 -9 -39z
m-197 18 c0 -9 -262 -197 -328 -235 -111 -65 -108 -43 4 24 54 33 123 78 154
101 71 52 161 114 166 114 2 0 4 -2 4 -4z m-4663 -110 c48 -29 121 -70 161
-90 75 -38 88 -48 50 -39 -46 12 -146 61 -248 124 -58 35 -117 70 -132 77 -16
6 -28 16 -28 21 0 15 98 -31 197 -93z m6313 89 c-7 -9 -15 -13 -17 -11 -7 7 7
26 19 26 6 0 6 -6 -2 -15z m-40 -6 c0 -4 -8 -9 -17 -11 -22 -5 -54 2 -49 11 6
9 66 10 66 0z m-2840 -24 c0 -16 -50 -13 -50 3 0 8 9 12 25 10 14 -2 25 -7 25
-13z m2706 -101 c-5 -14 -9 -14 -22 -3 -14 12 -14 14 3 20 23 8 27 4 19 -17z
m-226 6 c0 -5 -7 -10 -16 -10 -8 0 -12 5 -9 10 3 6 10 10 16 10 5 0 9 -4 9
-10z m110 2 c0 -5 -13 -9 -30 -9 -16 0 -30 4 -30 9 0 4 14 8 30 8 17 0 30 -4
30 -8z m70 -1 c0 -5 -11 -8 -25 -8 -13 0 -22 3 -19 8 3 5 14 9 25 9 10 0 19
-4 19 -9z m-5725 -112 c71 -27 160 -59 197 -69 75 -21 88 -27 88 -41 0 -18
-48 -9 -151 30 -131 48 -298 131 -266 131 2 0 62 -23 132 -51z m5109 -10 c-3
-5 -10 -7 -15 -3 -5 3 -7 10 -3 15 3 5 10 7 15 3 5 -3 7 -10 3 -15z m-49 1
c-3 -5 -10 -10 -16 -10 -5 0 -9 5 -9 10 0 6 7 10 16 10 8 0 12 -4 9 -10z m115
0 c0 -13 -11 -13 -30 0 -12 8 -11 10 8 10 12 0 22 -4 22 -10z m-1675 -94 c-40
-28 -342 -123 -353 -111 -2 2 61 24 140 50 78 25 157 52 173 60 41 18 66 19
40 1z m1462 -23 c4 -10 -42 -12 -105 -3 -2 0 0 5 3 11 9 14 97 7 102 -8z
m-4444 -47 c83 -19 204 -44 267 -56 106 -21 162 -40 114 -40 -73 1 -544 106
-544 122 0 11 -8 12 163 -26z m1357 14 l25 -8 -25 0 c-14 0 -36 4 -50 8 l-25
8 25 0 c14 0 36 -4 50 -8z m2650 -80 c0 -5 -7 -10 -15 -10 -8 0 -15 5 -15 10
0 6 7 10 15 10 8 0 15 -4 15 -10z m60 0 c0 -5 -12 -10 -27 -10 -22 0 -25 2
-13 10 20 13 40 13 40 0z m-3260 -70 c183 -14 268 -19 330 -20 36 0 50 -3 41
-9 -8 -5 -48 -7 -90 -5 -42 2 -134 6 -206 9 -158 7 -319 27 -308 38 4 5 31 6
58 3 28 -3 106 -10 175 -16z m-643 -6 c-3 -3 -12 -4 -19 -1 -8 3 -5 6 6 6 11
1 17 -2 13 -5z m1793 -24 c-14 -4 -56 -8 -95 -7 -68 0 -69 0 -20 7 28 4 70 7
95 7 36 1 40 -1 20 -7z m1606 -27 c-10 -10 -19 5 -10 18 6 11 8 11 12 0 2 -7
1 -15 -2 -18z m-1307 -93 c-39 -23 -192 -51 -304 -57 -127 -6 -154 0 -45 11
119 12 292 37 314 46 11 5 28 9 36 9 12 0 12 -1 -1 -9z m921 -14 c0 -3 -4 -8
-10 -11 -5 -3 -10 -1 -10 4 0 6 5 11 10 11 6 0 10 -2 10 -4z m-1500 -66 c0 -5
-15 -9 -32 -9 l-33 1 30 8 c17 4 31 8 33 9 1 0 2 -3 2 -9z m-70 -11 c0 -5 -27
-9 -60 -9 -78 0 -78 15 0 16 33 1 60 -2 60 -7z"/>
<path d="M1410 8877 c-93 -28 -147 -56 -219 -112 -216 -170 -323 -459 -308
-830 21 -509 331 -1014 755 -1229 300 -152 636 -119 850 85 140 134 221 318
253 577 21 169 -10 405 -77 592 -39 109 -142 311 -215 420 -158 238 -455 456
-688 505 -108 22 -259 19 -351 -8z m160 -148 c84 -12 209 -55 279 -95 71 -41
200 -145 261 -210 151 -160 251 -328 325 -545 54 -158 60 -197 59 -409 0 -180
-2 -203 -27 -295 -15 -55 -47 -142 -72 -194 -37 -77 -60 -108 -124 -173 -43
-43 -96 -85 -117 -94 -99 -41 -312 -18 -461 51 -339 157 -615 534 -705 963
-19 89 -22 137 -22 287 1 164 3 189 28 280 33 123 63 189 120 269 121 169 207
200 456 165z m1089 -991 c35 -130 40 -274 16 -424 -29 -180 -81 -305 -163
-395 -46 -50 -112 -99 -112 -83 0 3 22 48 49 98 93 173 131 339 131 575 0 86
3 173 7 195 l6 38 13 -28 c12 -29 12 -29 13 -4 2 35 12 70 21 70 4 0 13 -19
19 -42z"/>
<path d="M2300 7867 c0 -6 5 -28 10 -47 21 -73 40 -223 41 -325 0 -84 4 -105
15 -105 8 0 14 5 14 11 0 5 4 8 9 5 15 -9 21 33 21 144 0 167 -44 330 -89 330
-12 0 -21 -6 -21 -13z"/>
<path d="M1340 7435 c0 -58 168 -251 254 -291 27 -13 53 -21 58 -18 20 13 4
36 -49 71 -31 21 -86 72 -121 113 -35 41 -76 90 -92 108 -29 34 -50 41 -50 17z"/>
<path d="M1236 7358 c82 -167 271 -356 412 -411 103 -41 95 -14 -21 66 -104
73 -266 236 -342 345 -27 39 -58 71 -67 72 -14 0 -10 -12 18 -72z"/>
<path d="M2367 7376 c-18 -14 -24 -56 -7 -56 6 0 13 0 17 -1 10 0 23 60 14 65
-3 2 -14 -1 -24 -8z"/>
<path d="M2205 7050 c-27 -27 -79 -66 -116 -85 -75 -39 -82 -46 -73 -69 11
-28 42 -28 100 0 70 33 117 74 150 131 21 35 24 46 14 58 -7 8 -15 15 -19 15
-4 0 -29 -22 -56 -50z"/>
<path d="M679 7632 c-31 -15 -77 -35 -103 -45 -25 -11 -46 -25 -46 -33 0 -18
-2 -18 73 10 85 32 167 74 167 86 0 16 -32 10 -91 -18z"/>
<path d="M5610 8306 c-86 -18 -148 -55 -231 -136 -59 -58 -84 -92 -112 -151
-60 -128 -69 -180 -71 -404 l-2 -200 28 -35 c22 -27 28 -45 28 -85 0 -61 17
-88 73 -117 52 -27 154 -28 245 -3 61 17 103 45 68 45 -29 0 -29 29 1 67 63
80 103 172 118 268 14 92 -44 233 -147 355 -32 39 -54 70 -50 70 23 0 171
-124 202 -169 19 -27 38 -50 42 -51 22 -1 -50 134 -109 207 -20 24 -33 46 -30
49 9 9 92 -52 125 -92 17 -20 45 -66 63 -103 39 -79 37 -76 45 -68 9 8 -24
113 -53 172 -14 27 -41 72 -61 99 -26 36 -30 46 -16 38 77 -41 172 -191 209
-326 l14 -51 0 64 c1 85 -22 171 -71 259 -22 40 -38 75 -35 78 9 10 97 -99
126 -156 37 -75 47 -160 32 -275 -7 -48 -10 -90 -7 -92 3 -3 14 10 26 28 54
88 72 237 46 368 -56 276 -239 404 -496 347z m-169 -541 c141 -50 205 -170
165 -309 -22 -76 -58 -114 -124 -131 -63 -17 -102 -7 -102 25 0 40 19 60 55
60 65 0 98 65 75 150 -13 47 -45 83 -125 140 -30 21 -51 44 -53 58 -3 19 1 22
31 22 19 0 54 -7 78 -15z"/>
<path d="M5823 7346 c-75 -74 -83 -86 -59 -86 28 0 156 124 156 151 0 22 -31
2 -97 -65z"/>
<path d="M3785 7704 c8 -20 15 -57 15 -81 0 -97 54 -243 90 -243 32 0 73 65
78 124 9 111 -86 236 -178 236 -19 0 -20 -1 -5 -36z"/>
<path d="M4067 7459 c-8 -13 -23 -42 -33 -64 -12 -24 -33 -48 -55 -60 -36 -20
-42 -45 -10 -45 10 0 30 11 44 24 35 32 88 139 77 155 -6 10 -11 8 -23 -10z"/>
<path d="M3787 7433 c-7 -12 46 -116 65 -127 25 -15 31 -3 13 30 -8 16 -20 41
-25 56 -9 27 -45 54 -53 41z"/>
<path d="M3712 7128 c6 -17 36 -34 45 -24 4 4 -1 14 -11 22 -24 17 -39 18 -34
2z"/>
<path d="M6118 6413 c7 -3 16 -2 19 1 4 3 -2 6 -13 5 -11 0 -14 -3 -6 -6z"/>
<path d="M4796 4690 c-40 -78 -43 -88 -22 -71 16 14 70 131 63 138 -3 2 -21
-27 -41 -67z"/>
<path d="M3531 3682 c-20 -37 -251 -181 -445 -278 -86 -43 -236 -175 -236
-207 0 -16 7 -13 41 15 23 18 58 47 79 63 21 17 54 42 72 57 18 14 98 61 178
104 176 93 235 132 282 182 41 44 63 82 49 82 -6 0 -15 -8 -20 -18z"/>
<path d="M3330 3596 c-8 -7 -42 -28 -75 -46 -33 -17 -74 -42 -90 -55 -17 -12
-75 -45 -130 -73 -55 -28 -111 -61 -125 -72 l-25 -21 25 12 c14 6 50 27 80 45
30 19 78 40 105 47 54 14 181 95 229 146 30 31 33 43 6 17z"/>
<path d="M3073 3511 c-76 -33 -89 -44 -37 -29 46 12 90 34 99 48 3 5 5 10 3 9
-2 -1 -31 -13 -65 -28z"/>
<path d="M2187 5809 c-24 -14 -21 -55 5 -73 26 -18 154 -23 143 -6 -3 6 -27
10 -53 10 -61 0 -97 23 -81 51 13 25 9 30 -14 18z"/>
<path d="M2385 5580 c-11 -18 5 -30 41 -30 43 0 44 15 3 29 -39 13 -36 13 -44
1z"/>
<path d="M2295 5530 c-3 -5 -2 -10 4 -10 5 0 13 5 16 10 3 6 2 10 -4 10 -5 0
-13 -4 -16 -10z"/>
<path d="M6476 4593 c-3 -21 -8 -72 -11 -113 -3 -41 -8 -90 -11 -107 -4 -20
-2 -33 4 -33 13 0 42 159 42 233 0 64 -15 77 -24 20z"/>
<path d="M6237 4355 c-10 -44 -25 -108 -33 -142 -16 -71 -18 -96 -5 -89 19 12
68 249 59 292 -2 10 -12 -17 -21 -61z"/>
<path d="M6328 4344 c-5 -4 -8 -17 -8 -28 0 -35 -59 -255 -81 -305 -26 -58
-49 -121 -44 -121 9 0 87 154 105 207 34 105 53 273 28 247z"/>
<path d="M6407 4230 c-3 -8 -13 -52 -21 -98 -9 -46 -21 -92 -27 -103 -16 -30
-4 -34 15 -4 23 35 48 138 44 183 -2 23 -6 31 -11 22z"/>
<path d="M6203 3772 c-23 -48 -58 -130 -79 -182 -47 -124 -56 -140 -127 -235
-101 -134 -142 -172 -227 -204 -41 -16 -92 -32 -112 -36 -47 -9 -50 -25 -5
-25 74 0 182 46 246 104 82 76 238 313 255 390 4 16 26 74 50 130 51 120 60
146 49 145 -4 0 -27 -39 -50 -87z"/>
<path d="M5994 3489 c-35 -70 -41 -104 -9 -56 19 29 57 127 50 127 -3 0 -21
-32 -41 -71z"/>
<path d="M5886 3507 c-37 -48 -32 -57 9 -17 19 19 35 38 35 42 0 18 -20 6 -44
-25z"/>
<path d="M5825 3289 c-55 -41 -67 -56 -27 -33 29 17 83 64 71 64 -2 0 -22 -14
-44 -31z"/>
<path d="M5580 3160 c0 -5 7 -10 15 -10 8 0 15 5 15 10 0 6 -7 10 -15 10 -8 0
-15 -4 -15 -10z"/>
<path d="M2496 5432 c-9 -11 -17 -36 -19 -58 l-2 -39 42 2 c24 1 51 6 60 12
14 8 8 10 -29 11 -26 0 -50 4 -53 10 -3 5 1 23 10 41 19 36 15 47 -9 21z"/>
<path d="M2340 5305 c0 -8 7 -15 15 -15 8 0 15 7 15 15 0 8 -7 15 -15 15 -8 0
-15 -7 -15 -15z"/>
<path d="M2435 5117 c-9 -15 -24 -27 -31 -27 -8 0 -14 -8 -14 -17 0 -13 3 -14
12 -5 7 7 24 12 39 12 41 0 89 11 89 21 0 5 -13 9 -30 9 -17 0 -33 7 -38 17
-8 14 -12 13 -27 -10z"/>
<path d="M3980 4310 c0 -5 7 -10 15 -10 8 0 15 5 15 10 0 6 -7 10 -15 10 -8 0
-15 -4 -15 -10z"/>
<path d="M3896 4241 c-4 -5 3 -7 14 -4 23 6 26 13 6 13 -8 0 -17 -4 -20 -9z"/>
<path d="M4675 1343 c-16 -3 -34 -9 -40 -15 -11 -11 86 -1 120 13 16 6 12 8
-15 7 -19 -1 -48 -3 -65 -5z"/>
<path d="M4595 1320 c3 -5 8 -10 11 -10 2 0 4 5 4 10 0 6 -5 10 -11 10 -5 0
-7 -4 -4 -10z"/>
<path d="M4465 1310 c-19 -8 -19 -9 3 -9 12 -1 22 4 22 9 0 6 -1 10 -2 9 -2 0
-12 -4 -23 -9z"/>
<path d="M4515 1310 c-8 -13 15 -13 35 0 12 8 11 10 -7 10 -12 0 -25 -4 -28
-10z"/>
<path d="M4278 1293 c7 -3 16 -2 19 1 4 3 -2 6 -13 5 -11 0 -14 -3 -6 -6z"/>
<path d="M2978 2518 c-33 -40 -46 -47 -117 -68 -82 -23 -125 -24 -291 -4 -87
10 -49 -11 63 -35 205 -44 314 -16 371 97 27 53 13 58 -26 10z"/>
<path d="M2600 2521 c0 -12 83 -32 160 -38 73 -6 145 9 154 33 5 12 0 14 -32
7 -46 -10 -160 -10 -229 -1 -29 4 -53 3 -53 -1z"/>
<path d="M5635 9300 c-81 -9 -161 -27 -184 -40 -14 -8 -14 -9 1 -10 9 0 28 4
42 10 17 6 26 6 26 0 0 -6 44 -10 106 -10 59 0 164 -7 233 -15 349 -41 414
-46 424 -36 28 28 -196 86 -387 101 -135 11 -161 11 -261 0z"/>
<path d="M4990 9095 c-30 -8 -77 -23 -105 -35 l-50 -20 40 7 c91 14 179 39
183 51 4 14 3 14 -68 -3z"/>
<path d="M5165 9056 c-131 -18 -245 -52 -388 -116 -70 -31 -51 -36 23 -6 71
29 177 59 265 76 65 12 158 37 190 50 25 11 21 10 -90 -4z"/>
<path d="M4782 8858 c-18 -11 -31 -23 -28 -25 5 -5 76 35 76 43 0 8 -15 2 -48
-18z"/>
<path d="M4289 8813 l-24 -26 33 23 c33 25 38 30 24 30 -5 0 -19 -12 -33 -27z"/>
<path d="M3310 5435 c0 -6 56 -35 67 -35 4 0 -7 9 -25 20 -33 20 -42 24 -42
15z"/>
<path d="M3565 5295 c39 -18 81 -36 95 -40 l25 -6 -25 20 c-24 20 -133 62
-154 60 -6 0 21 -16 59 -34z"/>
<path d="M1635 3996 c-97 -23 -244 -110 -346 -204 l-57 -52 9 41 c5 22 16 57
24 76 19 44 19 43 -4 43 -22 0 -110 -93 -145 -153 -54 -93 -117 -291 -116
-365 1 -26 36 24 57 78 61 165 98 250 124 284 34 47 35 46 9 -22 -24 -62 -27
-122 -6 -122 7 0 19 13 26 30 18 43 107 132 165 165 28 15 81 47 118 71 38 23
83 46 100 50 42 9 140 72 132 84 -8 12 -26 12 -90 -4z"/>
<path d="M943 3578 c-29 -35 -55 -158 -62 -293 -5 -77 -5 -146 -2 -152 5 -10
12 -9 29 3 18 12 22 25 22 64 0 28 12 108 26 179 25 131 28 201 8 208 -6 2
-16 -2 -21 -9z"/>
<path d="M8450 2260 c0 -23 35 -28 43 -6 7 18 -1 26 -25 26 -11 0 -18 -7 -18
-20z"/>
<path d="M7663 2250 c-38 -15 -27 -19 52 -19 73 0 97 11 53 23 -32 8 -79 6
-105 -4z"/>
<path d="M7837 2253 c-14 -14 -6 -20 31 -21 32 -1 85 16 57 19 -5 0 -26 2 -46
5 -19 2 -39 1 -42 -3z"/>
<path d="M8020 2250 c0 -5 16 -10 35 -10 19 0 35 5 35 10 0 6 -16 10 -35 10
-19 0 -35 -4 -35 -10z"/>
<path d="M8488 2133 c6 -2 18 -2 25 0 6 3 1 5 -13 5 -14 0 -19 -2 -12 -5z"/>
<path d="M8563 2133 c9 -2 25 -2 35 0 9 3 1 5 -18 5 -19 0 -27 -2 -17 -5z"/>
<path d="M9010 2030 c0 -5 5 -10 11 -10 5 0 7 5 4 10 -3 6 -8 10 -11 10 -2 0
-4 -4 -4 -10z"/>
<path d="M9079 1940 c-16 -10 -11 -17 15 -22 22 -4 33 17 13 25 -8 3 -20 1
-28 -3z"/>
<path d="M9165 1930 c-3 -5 1 -10 10 -10 9 0 13 5 10 10 -3 6 -8 10 -10 10 -2
0 -7 -4 -10 -10z"/>
<path d="M9420 1930 c0 -5 5 -10 10 -10 6 0 10 5 10 10 0 6 -4 10 -10 10 -5 0
-10 -4 -10 -10z"/>
<path d="M9495 1930 c3 -5 15 -10 25 -10 10 0 22 5 25 10 4 6 -7 10 -25 10
-18 0 -29 -4 -25 -10z"/>
<path d="M4074 1909 c-16 -18 -16 -19 2 -20 10 0 40 -2 67 -5 42 -4 47 -2 47
16 0 22 2 21 -57 25 -31 2 -46 -2 -59 -16z"/>
<path d="M4237 1922 c-20 -2 -27 -8 -25 -20 5 -26 45 -27 53 -2 8 26 8 26 -28
22z"/>
<path d="M9077 1824 c-14 -14 -6 -24 19 -24 16 0 24 5 22 13 -5 14 -31 21 -41
11z"/>
<path d="M9145 1821 c-9 -16 16 -22 50 -12 24 7 25 9 8 10 -12 1 -28 4 -36 7
-8 3 -18 1 -22 -5z"/>
<path d="M9256 1823 c-13 -13 -5 -20 19 -15 14 2 25 7 25 11 0 9 -36 12 -44 4z"/>
<path d="M3320 1811 c0 -6 4 -13 10 -16 6 -3 7 1 4 9 -7 18 -14 21 -14 7z"/>
<path d="M3410 1809 c0 -5 5 -7 10 -4 6 3 10 8 10 11 0 2 -4 4 -10 4 -5 0 -10
-5 -10 -11z"/>
<path d="M3650 1810 c0 -5 7 -10 16 -10 8 0 12 5 9 10 -3 6 -10 10 -16 10 -5
0 -9 -4 -9 -10z"/>
<path d="M3865 1809 c-4 -6 -4 -13 -1 -16 3 -4 6 -1 6 6 0 8 6 11 16 7 8 -3
12 -2 9 4 -8 13 -22 13 -30 -1z"/>
<path d="M9345 1810 c3 -5 15 -10 26 -10 10 0 19 5 19 10 0 6 -12 10 -26 10
-14 0 -23 -4 -19 -10z"/>
<path d="M3748 1803 c6 -2 18 -2 25 0 6 3 1 5 -13 5 -14 0 -19 -2 -12 -5z"/>
<path d="M4040 1800 c-13 -8 -12 -10 3 -10 9 0 17 5 17 10 0 12 -1 12 -20 0z"/>
<path d="M4240 1800 c0 -5 5 -10 11 -10 5 0 7 5 4 10 -3 6 -8 10 -11 10 -2 0
-4 -4 -4 -10z"/>
<path d="M4290 1800 c0 -5 5 -10 11 -10 5 0 7 5 4 10 -3 6 -8 10 -11 10 -2 0
-4 -4 -4 -10z"/>
<path d="M4330 1800 c0 -5 7 -10 16 -10 8 0 12 5 9 10 -3 6 -10 10 -16 10 -5
0 -9 -4 -9 -10z"/>
<path d="M4445 1802 c-13 -13 -3 -22 25 -22 17 0 30 4 30 9 0 10 -47 21 -55
13z"/>
<path d="M4375 1790 c-3 -5 -2 -10 4 -10 5 0 13 5 16 10 3 6 2 10 -4 10 -5 0
-13 -4 -16 -10z"/>
<path d="M9275 1720 c-4 -6 -3 -14 0 -20 9 -15 35 -12 35 4 0 17 -27 29 -35
16z"/>
<path d="M9136 1705 c-4 -12 4 -15 39 -15 25 0 45 5 45 10 0 6 -3 10 -7 11 -5
0 -22 2 -40 4 -21 3 -33 0 -37 -10z"/>
<path d="M4790 1700 c0 -6 7 -10 15 -10 8 0 15 2 15 4 0 2 -7 6 -15 10 -8 3
-15 1 -15 -4z"/>
<path d="M4830 1700 c0 -5 5 -10 10 -10 6 0 10 5 10 10 0 6 -4 10 -10 10 -5 0
-10 -4 -10 -10z"/>
<path d="M4883 1698 c-2 -5 23 -8 57 -7 33 1 63 6 66 11 4 6 -19 8 -56 6 -34
-1 -64 -6 -67 -10z"/>
<path d="M9345 1700 c-3 -5 3 -10 15 -10 12 0 18 5 15 10 -3 6 -10 10 -15 10
-5 0 -12 -4 -15 -10z"/>
<path d="M9420 1700 c0 -5 9 -10 21 -10 11 0 17 5 14 10 -3 6 -13 10 -21 10
-8 0 -14 -4 -14 -10z"/>
<path d="M9525 1690 c-3 -5 1 -10 9 -10 9 0 16 5 16 10 0 6 -4 10 -9 10 -6 0
-13 -4 -16 -10z"/>
<path d="M9815 1630 c-3 -5 -1 -10 4 -10 6 0 11 5 11 10 0 6 -2 10 -4 10 -3 0
-8 -4 -11 -10z"/>
<path d="M8684 1609 c-10 -16 12 -32 43 -31 15 1 133 1 261 1 156 0 232 3 232
10 0 6 -1 11 -2 11 -2 1 -59 3 -128 6 -69 3 -140 6 -157 8 -18 2 -33 0 -33 -6
0 -5 -5 -6 -11 -2 -14 8 -114 8 -128 0 -5 -4 -12 -2 -16 4 -8 13 -52 13 -61
-1z"/>
<path d="M9806 1594 c-10 -26 -7 -34 14 -34 13 0 20 7 20 19 0 24 -26 35 -34
15z"/>
<path d="M9360 1589 c0 -5 5 -7 11 -3 6 3 15 0 20 -7 4 -7 11 -10 16 -6 8 9
-15 27 -34 27 -7 0 -13 -5 -13 -11z"/>
<path d="M9295 1580 c3 -5 8 -10 11 -10 2 0 4 5 4 10 0 6 -5 10 -11 10 -5 0
-7 -4 -4 -10z"/>
<path d="M9500 1580 c0 -5 9 -10 20 -10 11 0 20 5 20 10 0 6 -9 10 -20 10 -11
0 -20 -4 -20 -10z"/>
<path d="M9630 1580 c0 -5 5 -10 11 -10 5 0 7 5 4 10 -3 6 -8 10 -11 10 -2 0
-4 -4 -4 -10z"/>
<path d="M8605 1481 c-6 -11 9 -23 19 -14 9 9 7 23 -3 23 -6 0 -12 -4 -16 -9z"/>
<path d="M8650 1476 c0 -10 13 -13 47 -12 63 2 66 20 3 23 -36 2 -50 -1 -50
-11z"/>
<path d="M8792 1479 c2 -7 10 -15 17 -17 8 -3 12 1 9 9 -2 7 -10 15 -17 17 -8
3 -12 -1 -9 -9z"/>
<path d="M8847 1484 c-8 -8 1 -24 14 -24 5 0 9 7 9 15 0 15 -12 20 -23 9z"/>
<path d="M8888 1478 c-14 -8 -14 -8 20 -12 12 -2 22 3 22 9 0 13 -23 15 -42 3z"/>
<path d="M8980 1480 c0 -5 9 -10 20 -10 11 0 20 5 20 10 0 6 -9 10 -20 10 -11
0 -20 -4 -20 -10z"/>
<path d="M9055 1481 c-7 -12 12 -24 24 -16 5 3 12 1 16 -5 9 -15 25 -2 18 15
-6 16 -48 20 -58 6z"/>
<path d="M9185 1481 c-7 -12 12 -24 25 -16 11 7 4 25 -10 25 -5 0 -11 -4 -15
-9z"/>
<path d="M9436 1481 c-4 -7 -5 -15 -2 -18 9 -9 19 4 14 18 -4 11 -6 11 -12 0z"/>
<path d="M9660 1451 c0 -19 23 -35 34 -24 14 15 5 43 -14 43 -13 0 -20 -7 -20
-19z"/>
<path d="M8270 1371 c0 -29 57 -42 67 -15 6 15 7 15 19 -1 14 -18 34 -13 34
10 0 10 -16 13 -60 14 -33 0 -60 -3 -60 -8z"/>
<path d="M8400 1364 c0 -7 8 -15 18 -18 23 -6 95 -1 110 8 26 16 9 22 -58 23
-51 0 -70 -3 -70 -13z"/>
<path d="M8550 1365 c-10 -12 -9 -16 5 -21 10 -4 26 -2 36 4 24 15 32 15 23 1
-4 -7 -1 -10 7 -7 8 3 15 12 17 21 3 14 -5 17 -36 17 -23 0 -45 -6 -52 -15z"/>
<path d="M8662 1362 c2 -10 14 -18 32 -20 18 -2 26 0 21 7 -3 7 2 11 14 11 11
0 23 -5 26 -10 9 -15 25 -2 19 14 -4 9 -24 14 -60 15 -47 0 -55 -2 -52 -17z"/>
<path d="M8833 1365 c-17 -13 -16 -14 15 -15 33 0 43 13 18 23 -8 3 -22 -1
-33 -8z"/>
<path d="M8940 1360 c0 -14 61 -23 73 -11 13 13 14 12 -35 16 -21 2 -38 0 -38
-5z"/>
<path d="M9060 1360 c0 -13 28 -25 38 -16 3 4 0 11 -8 16 -20 13 -30 12 -30 0z"/>
<path d="M9378 1343 c7 -3 16 -2 19 1 4 3 -2 6 -13 5 -11 0 -14 -3 -6 -6z"/>
<path d="M7415 1250 c-10 -16 -6 -18 45 -21 34 -3 45 0 48 11 2 11 -9 16 -42
18 -25 1 -47 -2 -51 -8z"/>
<path d="M7539 1249 c-6 -3 -7 -8 -3 -11 16 -8 99 -3 104 6 6 11 -85 16 -101
5z"/>
<path d="M7664 1249 c-7 -11 -11 -10 71 -15 73 -4 122 2 110 14 -10 10 -175
11 -181 1z"/>
<path d="M7960 1247 c0 -21 30 -30 47 -15 11 8 19 9 31 1 13 -7 21 -7 29 2 9
10 7 13 -10 12 -12 -1 -39 2 -59 6 -30 6 -38 5 -38 -6z"/>
<path d="M8467 1254 c-12 -13 4 -24 34 -24 16 0 29 5 29 11 0 6 -7 8 -16 5 -9
-4 -22 -2 -29 4 -6 5 -15 7 -18 4z"/>
<path d="M7860 1241 c0 -11 48 -24 61 -16 5 4 7 11 4 16 -8 12 -65 12 -65 0z"/>
<path d="M8104 1241 c3 -5 17 -8 31 -8 14 0 25 3 25 8 0 5 -14 9 -31 9 -16 0
-28 -4 -25 -9z"/>
<path d="M8227 1244 c-10 -11 3 -24 24 -24 23 0 25 15 3 24 -19 7 -19 7 -27 0z"/>
<path d="M8336 1236 c7 -19 48 -22 42 -3 -3 6 -14 13 -26 15 -16 3 -20 -1 -16
-12z"/>
<path d="M8605 1240 c3 -5 13 -10 21 -10 8 0 12 5 9 10 -3 6 -13 10 -21 10 -8
0 -12 -4 -9 -10z"/>
<path d="M7172 1141 c2 -14 9 -26 16 -29 17 -5 15 10 -3 34 -15 18 -15 18 -13
-5z"/>
<path d="M7200 1140 c0 -5 4 -10 9 -10 6 0 13 5 16 10 3 6 -1 10 -9 10 -9 0
-16 -4 -16 -10z"/>
<path d="M7247 1143 c-12 -11 -8 -23 8 -23 8 0 15 6 15 13 0 9 3 8 9 -2 5 -7
14 -10 20 -7 6 4 9 12 6 17 -7 10 -48 12 -58 2z"/>
<path d="M7322 1138 c6 -18 28 -21 28 -4 0 9 -7 16 -16 16 -9 0 -14 -5 -12
-12z"/>
<path d="M7407 1144 c-14 -14 -6 -24 19 -24 16 0 24 5 22 13 -5 14 -31 21 -41
11z"/>
<path d="M7505 1141 c-7 -12 12 -24 25 -16 11 7 4 25 -10 25 -5 0 -11 -4 -15
-9z"/>
<path d="M7647 1144 c-12 -12 4 -24 34 -24 16 0 29 5 29 10 0 6 -6 10 -14 10
-8 0 -21 2 -28 5 -8 3 -17 3 -21 -1z"/>
<path d="M7833 1143 c-20 -8 -15 -23 7 -23 11 0 20 7 20 15 0 15 -6 17 -27 8z"/>
<path d="M7930 1136 c0 -17 23 -27 39 -17 8 5 3 11 -14 19 -20 9 -25 9 -25 -2z"/>
<path d="M7760 1130 c0 -5 12 -10 26 -10 14 0 23 4 19 10 -3 6 -15 10 -26 10
-10 0 -19 -4 -19 -10z"/>
<path d="M8040 1130 c0 -5 7 -10 15 -10 8 0 15 5 15 10 0 6 -7 10 -15 10 -8 0
-15 -4 -15 -10z"/>
<path d="M8120 1130 c0 -5 5 -10 11 -10 5 0 7 5 4 10 -3 6 -8 10 -11 10 -2 0
-4 -4 -4 -10z"/>
<path d="M8420 1124 c0 -8 5 -12 10 -9 6 4 8 11 5 16 -9 14 -15 11 -15 -7z"/>
<path d="M8705 1127 c-4 -10 -5 -21 -1 -24 10 -10 18 4 13 24 -4 17 -4 17 -12
0z"/>
<path d="M7578 1123 c6 -2 18 -2 25 0 6 3 1 5 -13 5 -14 0 -19 -2 -12 -5z"/>
<path d="M8790 1105 c-10 -12 -9 -20 5 -41 20 -31 38 -20 33 22 -4 32 -20 41
-38 19z"/>
<path d="M6395 1022 c-10 -11 -5 -20 15 -25 11 -3 27 1 35 10 8 8 15 10 15 4
0 -6 5 -11 10 -11 6 0 10 6 10 14 0 9 -13 13 -40 13 -22 0 -42 -2 -45 -5z"/>
<path d="M6507 1023 c-15 -15 -5 -23 28 -23 24 0 35 5 35 15 0 15 -50 22 -63
8z"/>
<path d="M6610 1021 c0 -15 16 -22 34 -15 25 9 19 24 -9 24 -14 0 -25 -4 -25
-9z"/>
<path d="M6680 1015 c0 -8 4 -15 10 -15 5 0 7 7 4 15 -4 8 -8 15 -10 15 -2 0
-4 -7 -4 -15z"/>
<path d="M6740 1021 c0 -5 7 -12 16 -15 22 -9 24 -8 24 9 0 8 -9 15 -20 15
-11 0 -20 -4 -20 -9z"/>
<path d="M6810 1014 c0 -11 5 -14 16 -10 9 3 20 6 25 6 5 0 9 5 9 10 0 6 -11
10 -25 10 -16 0 -25 -6 -25 -16z"/>
<path d="M6876 1015 c4 -8 12 -15 20 -15 19 0 18 16 -2 24 -22 9 -24 8 -18 -9z"/>
<path d="M6966 1015 c-3 -9 0 -15 10 -15 8 0 13 4 10 9 -4 5 0 12 6 14 8 4 7
6 -3 6 -9 1 -19 -6 -23 -14z"/>
<path d="M7045 1010 c3 -5 14 -10 23 -10 15 0 15 2 2 10 -20 13 -33 13 -25 0z"/>
<path d="M7110 1008 c0 -11 28 -10 35 1 3 6 -4 9 -15 8 -11 -1 -20 -5 -20 -9z"/>
<path d="M7205 1010 c-18 -8 -17 -9 8 -9 16 -1 26 3 22 9 -3 6 -7 10 -8 9 -1
0 -11 -4 -22 -9z"/>
<path d="M7280 1010 c0 -5 9 -10 20 -10 11 0 20 5 20 10 0 6 -9 10 -20 10 -11
0 -20 -4 -20 -10z"/>
<path d="M7340 1010 c0 -5 4 -10 9 -10 6 0 13 5 16 10 3 6 -1 10 -9 10 -9 0
-16 -4 -16 -10z"/>
<path d="M7400 1010 c0 -5 7 -6 17 -3 11 4 14 3 9 -5 -5 -8 -2 -10 8 -6 25 9
19 24 -9 24 -14 0 -25 -4 -25 -10z"/>
<path d="M7510 1010 c0 -5 5 -10 11 -10 5 0 7 5 4 10 -3 6 -8 10 -11 10 -2 0
-4 -4 -4 -10z"/>
<path d="M7585 1010 c3 -5 10 -10 16 -10 5 0 9 5 9 10 0 6 -7 10 -16 10 -8 0
-12 -4 -9 -10z"/>
<path d="M7780 1010 c0 -5 5 -10 11 -10 5 0 7 5 4 10 -3 6 -8 10 -11 10 -2 0
-4 -4 -4 -10z"/>
<path d="M7898 1003 c7 -3 16 -2 19 1 4 3 -2 6 -13 5 -11 0 -14 -3 -6 -6z"/>
<path d="M8092 994 c1 -9 9 -19 16 -22 9 -3 13 2 10 14 -1 9 -9 19 -16 22 -9
3 -13 -2 -10 -14z"/>
<path d="M7993 993 c9 -2 23 -2 30 0 6 3 -1 5 -18 5 -16 0 -22 -2 -12 -5z"/>
<path d="M8350 981 c0 -10 6 -24 14 -30 11 -10 16 -8 21 8 3 12 3 25 0 31 -11
17 -35 11 -35 -9z"/>
<path d="M6206 904 c-8 -22 -9 -21 19 -21 30 0 33 12 6 26 -15 8 -20 7 -25 -5z"/>
<path d="M5427 897 c-4 -10 5 -14 29 -15 19 -1 34 3 34 9 0 6 -8 9 -17 7 -10
-1 -23 1 -29 5 -7 4 -14 1 -17 -6z"/>
<path d="M5503 895 c4 -10 123 -15 160 -7 42 10 10 18 -73 18 -59 0 -89 -4
-87 -11z"/>
<path d="M5705 900 c-3 -5 -5 -10 -3 -11 51 -10 90 0 52 15 -23 9 -42 7 -49
-4z"/>
<path d="M5806 901 c-3 -5 4 -11 16 -14 25 -7 33 -3 23 12 -8 13 -32 14 -39 2z"/>
<path d="M5866 903 c-11 -11 -6 -23 9 -23 8 0 15 4 15 9 0 13 -16 22 -24 14z"/>
<path d="M5934 899 c-3 -5 -4 -9 -2 -10 25 -6 39 -6 43 1 3 4 -4 10 -15 13
-11 3 -23 1 -26 -4z"/>
<path d="M6060 900 c0 -5 10 -10 23 -10 18 0 19 2 7 10 -19 13 -30 13 -30 0z"/>
<path d="M6115 900 c-3 -5 -1 -10 4 -10 6 0 11 5 11 10 0 6 -2 10 -4 10 -3 0
-8 -4 -11 -10z"/>
<path d="M6295 900 c-4 -6 7 -10 25 -10 18 0 29 4 25 10 -3 6 -15 10 -25 10
-10 0 -22 -4 -25 -10z"/>
<path d="M6440 900 c0 -5 12 -10 26 -10 14 0 23 4 19 10 -3 6 -15 10 -26 10
-10 0 -19 -4 -19 -10z"/>
<path d="M5215 890 c-4 -6 2 -9 14 -7 29 4 39 17 13 17 -11 0 -24 -5 -27 -10z"/>
<path d="M5270 890 c0 -5 14 -10 30 -10 17 0 30 5 30 10 0 6 -13 10 -30 10
-16 0 -30 -4 -30 -10z"/>
<path d="M5360 890 c0 -5 11 -10 25 -10 14 0 25 5 25 10 0 6 -11 10 -25 10
-14 0 -25 -4 -25 -10z"/>
<path d="M6020 890 c19 -13 30 -13 30 0 0 6 -10 10 -22 10 -19 0 -20 -2 -8
-10z"/>
<path d="M6538 893 c7 -3 16 -2 19 1 4 3 -2 6 -13 5 -11 0 -14 -3 -6 -6z"/>
<path d="M6688 893 c7 -3 16 -2 19 1 4 3 -2 6 -13 5 -11 0 -14 -3 -6 -6z"/>
<path d="M7988 837 c-3 -19 -2 -25 4 -19 6 6 8 18 6 28 -3 14 -5 12 -10 -9z"/>
<path d="M5505 789 c-10 -15 0 -21 27 -17 l23 3 -22 13 c-15 8 -24 9 -28 1z"/>
<path d="M5617 794 c-14 -14 -7 -25 13 -22 12 2 21 8 21 13 0 12 -24 18 -34 9z"/>
<path d="M4855 780 c3 -5 21 -10 38 -10 24 0 28 3 17 10 -20 13 -63 13 -55 0z"/>
<path d="M5185 780 c3 -5 15 -10 26 -10 11 0 17 5 14 10 -3 6 -15 10 -26 10
-11 0 -17 -4 -14 -10z"/>
<path d="M5290 780 c0 -5 7 -10 15 -10 8 0 15 5 15 10 0 6 -7 10 -15 10 -8 0
-15 -4 -15 -10z"/>
<path d="M5380 780 c0 -5 7 -10 15 -10 8 0 15 5 15 10 0 6 -7 10 -15 10 -8 0
-15 -4 -15 -10z"/>
<path d="M5780 780 c20 -13 33 -13 25 0 -3 6 -14 10 -23 10 -15 0 -15 -2 -2
-10z"/>
<path d="M6040 780 c0 -5 12 -10 26 -10 14 0 23 4 19 10 -3 6 -15 10 -26 10
-10 0 -19 -4 -19 -10z"/>
<path d="M6190 780 c0 -5 10 -10 23 -10 18 0 19 2 7 10 -19 13 -30 13 -30 0z"/>
<path d="M6275 780 c-4 -6 11 -10 37 -9 33 0 38 2 23 9 -28 12 -53 12 -60 0z"/>
<path d="M6400 780 c0 -5 9 -10 21 -10 11 0 17 5 14 10 -3 6 -13 10 -21 10 -8
0 -14 -4 -14 -10z"/>
<path d="M4973 773 c9 -2 23 -2 30 0 6 3 -1 5 -18 5 -16 0 -22 -2 -12 -5z"/>
<path d="M5958 773 c7 -3 16 -2 19 1 4 3 -2 6 -13 5 -11 0 -14 -3 -6 -6z"/>
<path d="M6518 773 c6 -2 18 -2 25 0 6 3 1 5 -13 5 -14 0 -19 -2 -12 -5z"/>
<path d="M6808 773 c7 -3 16 -2 19 1 4 3 -2 6 -13 5 -11 0 -14 -3 -6 -6z"/>
</g>
</svg>
